<?xml version="1.0" encoding="utf-8"?>
<!-- Generator: Adobe Illustrator 27.2.0, SVG Export Plug-In . SVG Version: 6.00 Build 0)  -->
<svg version="1.1" id="svg261" xmlns:svg="http://www.w3.org/2000/svg"
	 xmlns="http://www.w3.org/2000/svg" xmlns:xlink="http://www.w3.org/1999/xlink" x="0px" y="0px" viewBox="0 0 682.67 682.67"
	 style="enable-background:new 0 0 682.67 682.67;" xml:space="preserve">
<style type="text/css">
	.st0{fill:#DD9143;}
</style>
<path class="st0" d="M662.67,82.83h-101.5v-21.5c0-10.22-8.28-18.5-18.5-18.5s-18.5,8.28-18.5,18.5v21.5H419.83v-21.5
	c0-10.22-8.28-18.5-18.5-18.5s-18.5,8.28-18.5,18.5v21.5h-103v-21.5c0-10.22-8.28-18.5-18.5-18.5s-18.5,8.28-18.5,18.5v21.5H140
	c-10.22,0-18.5,8.28-18.5,18.5v120c0,48.02-5.96,93.97-17.72,136.57c-9.39,34.02-22.48,66.02-38.91,95.11
	c-28.03,49.61-56.47,73.9-56.71,74.11c-5.98,4.99-8.2,13.19-5.55,20.51s9.61,12.2,17.4,12.2h101.5v61.5c0,10.22,8.28,18.5,18.5,18.5
	h522.67c10.22,0,18.5-8.28,18.5-18.5v-520C681.17,91.12,672.88,82.83,662.67,82.83z M158.5,119.83h84.33v21.5
	c0,10.22,8.28,18.5,18.5,18.5s18.5-8.28,18.5-18.5v-21.5h103v21.5c0,10.22,8.28,18.5,18.5,18.5s18.5-8.28,18.5-18.5v-21.5h104.33
	v21.5c0,10.22,8.28,18.5,18.5,18.5s18.5-8.28,18.5-18.5v-21.5h83v83H158.5V119.83z M96.06,473.01
	c18.17-31.8,32.64-66.76,43.01-103.89c11.35-40.68,17.77-84.09,19.14-129.29h485.65c-1.34,41.33-7.18,80.97-17.42,118.07
	c-9.39,34.02-22.48,66.02-38.91,95.11c-21.33,37.76-42.91,60.85-52.1,69.82H62.4C72.59,510.08,84.35,493.51,96.06,473.01z
	 M158.5,602.83v-43h384.17c4.33,0,8.52-1.52,11.84-4.29c1.33-1.11,32.92-27.77,64.22-82.53c9.52-16.66,18.01-34.18,25.44-52.43
	v182.25H158.5z"/>
</svg>
