<?xml version="1.0" encoding="utf-8"?>
<!-- Generator: Adobe Illustrator 27.2.0, SVG Export Plug-In . SVG Version: 6.00 Build 0)  -->
<svg version="1.1" id="Layer_1" xmlns="http://www.w3.org/2000/svg" xmlns:xlink="http://www.w3.org/1999/xlink" x="0px" y="0px"
	 viewBox="0 0 566.93 224.74" style="enable-background:new 0 0 566.93 224.74;" xml:space="preserve">
<style type="text/css">
	.st0{fill:none;stroke:#9B887B;stroke-width:0.5608;stroke-linejoin:round;stroke-miterlimit:10;}
	.st1{fill:#DD9143;}
</style>
<g>
	<path class="st0" d="M249.1,26.48C135.85,39,41.98,115.82,4.81,219.62"/>
	<path class="st0" d="M318.28,26.48C431.53,39,525.39,115.82,562.57,219.62"/>
	<path class="st1" d="M253.42,35.33c2.87,0,4.72-3.3,5.46-4.93c0.24-0.54,0.77-0.89,1.37-0.89h23.55c0.99,0,1.71,0.95,1.44,1.91
		l-4.36,15.27c-0.15,0.52,0,1.08,0.38,1.47c0.66,0.66,1.77,0.56,2.3-0.22l11.86-17.54c0.28-0.41,0.74-0.66,1.24-0.66h14.21
		c3.92,0,3.58-3.58,3.58-3.58s0.34-3.58-3.58-3.58l-14.21,0c-0.5,0-0.96-0.25-1.24-0.66L283.54,4.37c-0.53-0.78-1.63-0.88-2.3-0.22
		c-0.38,0.38-0.53,0.95-0.38,1.47l4.36,15.27c0.27,0.95-0.44,1.91-1.44,1.91h-23.55c-0.59,0-1.12-0.35-1.37-0.89
		c-0.74-1.63-2.59-4.93-5.46-4.93c-3.81,0,1.23,5.04,1.23,9.18C254.65,30.29,249.61,35.33,253.42,35.33z"/>
</g>
</svg>
