<?xml version="1.0" encoding="utf-8"?>
<!-- Generator: Adobe Illustrator 27.2.0, SVG Export Plug-In . SVG Version: 6.00 Build 0)  -->
<svg version="1.1" id="Layer_1" xmlns="http://www.w3.org/2000/svg" xmlns:xlink="http://www.w3.org/1999/xlink" x="0px" y="0px"
	 viewBox="0 0 850.39 128.59" style="enable-background:new 0 0 850.39 128.59;" xml:space="preserve">
<style type="text/css">
	.st0{fill:none;stroke:#9B887B;stroke-width:0.8503;stroke-linejoin:round;stroke-miterlimit:10;}
</style>
<g>
	<g>
		<g>
			
				<rect x="341.66" y="80.67" transform="matrix(1 -1.260238e-03 1.260238e-03 1 -0.1057 0.4395)" class="st0" width="14.01" height="6.84"/>
			
				<rect x="322.82" y="95.51" transform="matrix(1 -1.233445e-03 1.233445e-03 1 -0.1299 0.4015)" class="st0" width="5.24" height="19.94"/>
			<polygon class="st0" points="331.32,87.53 320.16,87.54 331.32,91.6 			"/>
			<polygon class="st0" points="309.97,119.08 331.36,119.06 331.36,119.06 			"/>
			
				<rect x="313.98" y="95.53" transform="matrix(1 -1.255057e-03 1.255057e-03 1 -0.1322 0.3974)" class="st0" width="5.24" height="19.94"/>
			<polygon class="st0" points="307.73,95.54 305.12,95.54 305.14,115.48 307.75,115.48 307.77,115.48 310.38,115.47 310.35,95.53 
				310.01,95.53 			"/>
			<path class="st0" d="M341.71,119.04l14.01-0.02l-0.04-31.53l-14.01,0.02L341.71,119.04z M348.09,98.14
				c1.31,0,2.38,1.07,2.38,2.37l0.01,6.69c0,1.31-1.07,2.38-2.37,2.38c-1.31,0-2.38-1.07-2.38-2.37l-0.01-6.69
				C345.72,99.22,346.78,98.15,348.09,98.14z"/>
			<polygon class="st0" points="331.32,91.6 331.65,91.72 331.32,91.72 331.32,91.9 331.65,91.9 331.66,93.51 331.66,95.51 
				331.68,115.45 331.69,117.44 331.69,119.06 331.36,119.06 331.36,119.06 331.36,119.06 341.71,119.04 341.71,119.04 
				341.67,87.52 341.66,80.68 341.64,68.72 331.29,68.73 331.31,80.69 331.32,87.53 			"/>
			<path class="st0" d="M336.46,63.59c-5.03,0.01-5.17,5.13-5.17,5.13l10.35-0.01C341.64,68.72,341.49,63.59,336.46,63.59z"/>
			<path class="st0" d="M348.1,109.58c1.31,0,2.37-1.07,2.37-2.38l-0.01-6.69c0-1.31-1.07-2.37-2.38-2.37
				c-1.31,0-2.37,1.07-2.37,2.38l0.01,6.69C345.73,108.52,346.8,109.59,348.1,109.58z"/>
			<polygon class="st0" points="295.29,87.58 307.71,83.02 307.71,83.02 307.72,83.02 307.73,83.02 307.73,83.02 320.16,87.54 
				331.32,87.53 331.31,80.69 307.62,80.72 307.62,80.72 284.13,80.75 284.13,87.59 			"/>
			
				<rect x="259.77" y="80.77" transform="matrix(1 -1.254623e-03 1.254623e-03 1 -0.1054 0.3348)" class="st0" width="14.01" height="6.84"/>
			<polygon class="st0" points="284.13,87.59 284.14,91.66 295.29,87.58 			"/>
			
				<rect x="287.43" y="95.56" transform="matrix(1 -1.255057e-03 1.255057e-03 1 -0.1322 0.3641)" class="st0" width="5.24" height="19.94"/>
			
				<rect x="296.28" y="95.55" transform="matrix(1 -1.255084e-03 1.255084e-03 1 -0.1322 0.3752)" class="st0" width="5.24" height="19.94"/>
			<path class="st0" d="M307.87,119.09l-0.09,0h-0.01l-23.58,0.03l0,0l-10.35,0.01l-0.04-31.53l-14.01,0.02l0.04,31.53
				L307.87,119.09L307.87,119.09z M269.77,107.13c0,1.31-1.07,2.38-2.37,2.38c-1.31,0-2.38-1.07-2.38-2.37l-0.01-6.69
				c0-1.31,1.07-2.38,2.37-2.38c1.31,0,2.38,1.07,2.38,2.37L269.77,107.13z"/>
			<polygon class="st0" points="307.72,91.93 310.01,91.93 331.32,91.9 331.32,91.72 307.74,91.75 307.72,91.75 284.14,91.78 
				284.14,91.96 			"/>
			<polygon class="st0" points="307.72,91.75 307.74,91.75 331.32,91.72 331.65,91.72 331.32,91.6 320.16,87.54 307.73,83.02 
				307.73,83.02 307.72,83.02 307.71,83.02 307.71,83.02 295.29,87.58 284.14,91.66 284.14,91.78 			"/>
			<polygon class="st0" points="273.82,119.13 284.17,119.12 284.17,119.12 283.84,119.12 283.84,117.5 283.84,115.51 283.81,95.57 
				283.81,93.57 283.81,91.96 284.14,91.96 284.14,91.78 284.14,91.66 284.13,87.59 284.13,80.75 284.11,68.79 273.76,68.8 
				273.78,80.77 273.78,87.6 			"/>
			<path class="st0" d="M278.93,63.67c-5.03,0.01-5.17,5.13-5.17,5.13l10.35-0.01C284.11,68.79,283.96,63.66,278.93,63.67z"/>
			<path class="st0" d="M267.39,98.07c-1.31,0-2.37,1.07-2.37,2.38l0.01,6.69c0,1.31,1.07,2.37,2.38,2.37
				c1.31,0,2.37-1.07,2.37-2.38l-0.01-6.69C269.76,99.14,268.69,98.07,267.39,98.07z"/>
			<path class="st0" d="M331.69,119.06l0-1.61l0-1.99l-0.03-19.94l0-1.99l0-1.61l-0.33,0l-21.31,0.03l-2.29,0l-23.58,0.03l-0.33,0
				l0,1.61l0,1.99l0.02,19.94l0,1.99l0,1.61l0.33,0l23.58-0.03h0.01l0.09,0l2.1,0l21.39-0.03L331.69,119.06z M292.68,115.5
				l-5.24,0.01l-0.02-19.94l5.24-0.01L292.68,115.5z M301.53,115.49l-5.24,0.01l-0.03-19.94l5.24-0.01L301.53,115.49z
				 M310.38,115.47l-2.61,0l-0.01,0l-2.61,0l-0.02-19.94l2.61,0l2.29,0l0.34,0L310.38,115.47z M319.23,115.46l-5.24,0.01
				l-0.02-19.94l5.24-0.01L319.23,115.46z M328.07,115.45l-5.24,0.01l-0.02-19.94l5.24-0.01L328.07,115.45z"/>
			
				<rect x="291.56" y="74.84" transform="matrix(1 -1.270941e-03 1.270941e-03 1 -0.0986 0.3908)" class="st0" width="31.72" height="5.89"/>
			<polygon class="st0" points="323.25,57.72 320.81,57.73 320.81,57.73 299.37,57.75 291.54,57.76 291.55,63.65 323.26,63.61 			
				"/>
			<polygon class="st0" points="323.26,63.61 291.55,63.65 291.56,74.86 291.56,74.86 323.28,74.82 			"/>
			<polygon class="st0" points="320.81,57.73 320.8,52.22 320.66,52.22 320.66,52.22 307.65,52.24 307.65,52.24 294.76,52.25 
				294.77,57.76 299.37,57.75 320.81,57.73 			"/>
			<path class="st0" d="M307.65,52.24l13.01-0.02l0,0c0,0,1.99-10.6-9.01-12.65v0.05l-7.98,0.01v-0.04
				c-10.93,2.1-8.92,12.66-8.92,12.66L307.65,52.24L307.65,52.24z"/>
			<polygon class="st0" points="311.65,39.62 311.65,39.57 311.65,36.11 310.51,36.11 310.51,36.11 304.81,36.12 304.81,36.12 
				303.67,36.12 303.68,39.59 303.68,39.63 			"/>
			<path class="st0" d="M310.51,36.11L310.51,36.11l0-2.85c0-1.57-1.28-2.85-2.85-2.85c-1.57,0-2.85,1.28-2.85,2.85l0,2.85l0,0
				L310.51,36.11z"/>
		</g>
		<g>
			<polygon class="st0" points="577.84,60.75 577.84,60.75 577.84,60.94 577.84,60.94 577.84,60.75 			"/>
			<polygon class="st0" points="642.34,60.91 642.34,60.72 642.34,60.91 			"/>
			<path class="st0" d="M577.86,96.3l0.01,22.85l21.5-0.01l-0.01-22.85L577.86,96.3z M589.15,119.12l-7.34,0l0-11.37
				c0,0-0.44-7.34,7.34-7.35c7.78,0,7.35,7.34,7.35,7.34l0,11.37L589.15,119.12z"/>
			<path class="st0" d="M581.85,45.54c0,0-0.44-7.34,7.34-7.35c7.78,0,7.35,7.34,7.35,7.34l0,11.37l2.79,0l-0.01-25.18l-21.5,0.01
				l0.01,25.18l4.02,0L581.85,45.54z"/>
			<path class="st0" d="M620.85,96.28l0.01,22.85l21.5-0.01l-0.01-22.85L620.85,96.28z M631.07,119.1l-7.34,0l0-11.37
				c0,0-0.44-7.34,7.34-7.35c7.78,0,7.35,7.34,7.35,7.34l0,11.37L631.07,119.1z"/>
			<path class="st0" d="M623.62,45.52c0,0-0.44-7.34,7.34-7.35c7.78,0,7.35,7.34,7.35,7.34l0,11.37l4.02,0l-0.01-25.18l-21.5,0.01
				l0.01,25.18l2.79,0L623.62,45.52z"/>
			<path class="st0" d="M610.09,66.43l-10.75,0l0.01,24.35l3.4,0l0-11.37c0,0-0.44-7.34,7.34-7.35c7.78,0,7.35,7.34,7.35,7.34
				l0,11.37l3.4,0l-0.01-24.35L610.09,66.43z"/>
			<path class="st0" d="M581.87,79.43c0,0-0.44-7.34,7.34-7.35c7.78,0,7.35,7.34,7.35,7.34l0,11.37l2.79,0l-0.01-24.35l-21.5,0.01
				l0.01,24.35l4.02,0L581.87,79.43z"/>
			<path class="st0" d="M610.1,96.29l-10.75,0l0.01,22.85l10.75,0l10.75,0l-0.01-22.85L610.1,96.29z M610.19,119.11l-0.08,0l-0.08,0
				l-7.34,0l0-11.37c0,0-0.44-7.34,7.34-7.35c0.03,0,0.05,0,0.08,0c0.03,0,0.05,0,0.08,0c7.78,0,7.35,7.34,7.35,7.34l0,11.37
				L610.19,119.11z"/>
			<path class="st0" d="M620.85,90.78l2.79,0l0-11.37c0,0-0.44-7.34,7.34-7.35c7.78,0,7.35,7.34,7.35,7.34l0,11.37l4.02,0
				l-0.01-24.35l-21.5,0.01L620.85,90.78z"/>
			<polygon class="st0" points="610.1,96.29 620.85,96.28 642.35,96.27 642.35,90.77 638.33,90.77 630.98,90.77 623.64,90.78 
				620.85,90.78 617.45,90.78 610.1,90.78 602.76,90.78 599.35,90.79 596.56,90.79 589.22,90.79 581.87,90.79 577.85,90.8 
				577.86,96.3 599.35,96.29 			"/>
			<polygon class="st0" points="610.09,66.43 620.84,66.42 642.34,66.42 642.34,60.91 642.34,60.72 620.84,60.73 610.09,60.73 
				599.34,60.74 577.84,60.75 577.84,60.94 577.84,66.44 599.34,66.43 			"/>
			<rect x="577.83" y="28.46" class="st0" width="21.5" height="3.27"/>
			<polygon class="st0" points="599.34,60.74 610.09,60.73 620.84,60.73 642.34,60.72 642.33,56.88 638.31,56.88 630.97,56.89 
				623.63,56.89 620.84,56.89 610.09,56.89 599.34,56.9 596.55,56.9 589.2,56.9 581.86,56.91 577.84,56.91 577.84,60.75 
				577.84,60.75 			"/>
			<rect x="620.82" y="28.44" class="st0" width="21.5" height="3.27"/>
			<path class="st0" d="M610.09,72.07c-7.78,0-7.34,7.35-7.34,7.35l0,11.37l7.34,0l7.34,0l0-11.37
				C617.44,79.41,617.87,72.07,610.09,72.07z"/>
			<path class="st0" d="M589.21,72.08c-7.78,0-7.34,7.35-7.34,7.35l0,11.37l7.34,0l7.34,0l0-11.37
				C596.56,79.42,596.99,72.08,589.21,72.08z"/>
			<path class="st0" d="M589.2,38.19c-7.78,0-7.34,7.35-7.34,7.35l0,11.37l7.34,0l7.34,0l0-11.37
				C596.54,45.53,596.98,38.19,589.2,38.19z"/>
			<path class="st0" d="M589.15,100.41c-7.78,0-7.34,7.35-7.34,7.35l0,11.37l7.34,0l7.34,0l0-11.37
				C596.49,107.75,596.93,100.41,589.15,100.41z"/>
			<path class="st0" d="M630.98,72.06c-7.78,0-7.34,7.35-7.34,7.35l0,11.37l7.34,0l7.34,0l0-11.37
				C638.32,79.4,638.76,72.06,630.98,72.06z"/>
			<path class="st0" d="M630.96,38.18c-7.78,0-7.34,7.35-7.34,7.35l0,11.37l7.34,0l7.34,0l0-11.37
				C638.31,45.52,638.74,38.17,630.96,38.18z"/>
			<path class="st0" d="M610.18,100.4c-0.03,0-0.05,0-0.08,0c-0.03,0-0.05,0-0.08,0c-7.78,0-7.34,7.35-7.34,7.35l0,11.37l7.34,0
				l0.08,0l0.08,0l7.34,0l0-11.37C617.53,107.74,617.96,100.4,610.18,100.4z"/>
			<path class="st0" d="M631.06,100.39c-7.78,0-7.34,7.35-7.34,7.35l0,11.37l7.34,0l7.34,0l0-11.37
				C638.41,107.73,638.84,100.39,631.06,100.39z"/>
		</g>
		<g>
			<rect x="18.95" y="31.81" class="st0" width="1.88" height="0"/>
			<polygon class="st0" points="24.45,31.82 24.45,31.82 24.21,31.82 26.33,31.82 26.33,31.82 			"/>
			<rect x="29.95" y="31.82" class="st0" width="1.88" height="0"/>
			<path class="st0" d="M31.83,31.82L31.83,31.82l-1.88,0v0l-3.62,0l0,0l-2.13,0l-3.38,0l0,0l-1.88,0l0,0l-3.04,0l-6.05,0
				L9.83,77.78l0.01-8.8l1.95,0l0.01-7.94c0-1,0.82-1.81,1.81-1.81c1,0,1.81,0.82,1.81,1.81l-0.01,7.94l25.49,0.02l0.01-12.39
				l-1.95,0v0.01l-3.62,0v-0.01l-2.26,0v0.01l-3.62,0v-0.01l-2.26,0v0.01l-3.62,0V56.6l-2.26,0v0.01l-3.62,0V56.6l-2.26,0v0.01
				l-3.62,0V56.6l-1.95,0L9.85,44.2l7.83,0.01l0.01-7.94c0-1,0.82-1.81,1.81-1.81c1,0,1.81,0.82,1.81,1.81l-0.01,7.94l-1.2,0l3.47,0
				l0.01-7.94c0-1,0.82-1.81,1.81-1.81c1,0,1.81,0.82,1.81,1.81l-0.01,7.94l-1.81,0l9.96,0.01l0.01-7.94c0-1,0.82-1.81,1.81-1.81
				c1,0,1.81,0.82,1.81,1.81l-0.01,7.94l1.95,0l0.01-12.39l-5.46,0l0,0L31.83,31.82z M35.33,61.07c0-1,0.82-1.81,1.81-1.81
				c1,0,1.81,0.82,1.81,1.81l-0.01,7.94l-3.62,0L35.33,61.07z M29.44,61.07c0-1,0.82-1.81,1.81-1.81c1,0,1.81,0.82,1.81,1.81
				l-0.01,7.94l-3.62,0L29.44,61.07z M23.56,61.06c0-1,0.82-1.81,1.81-1.81l0,0c1,0,1.81,0.82,1.81,1.81L27.17,69l-3.62,0
				L23.56,61.06z M17.67,61.06c0-1,0.82-1.81,1.81-1.81c1,0,1.81,0.82,1.81,1.81L21.29,69l-3.62,0L17.67,61.06z M15.42,44.2l-3.62,0
				l0.01-7.94c0-1,0.82-1.81,1.81-1.81s1.81,0.82,1.81,1.81L15.42,44.2z M33.08,44.22l-3.62,0l0.01-7.94c0-1,0.82-1.81,1.81-1.81
				s1.81,0.82,1.81,1.81L33.08,44.22z"/>
			<path class="st0" d="M38.93,81.42l-3.62,0V81.4l-2.26,0v0.02l-3.62,0V81.4l-2.26,0v0.02l-3.62,0v-0.02l-2.26,0v0.02l-3.62,0
				v-0.02l-2.26,0v0.02l-3.62,0v-0.02l-1.95,0L9.81,93.52l1.95,0l0.01-7.65c0-1,0.82-1.81,1.81-1.81c1,0,1.81,0.82,1.81,1.81
				l-0.01,7.65l2.26,0l0.01-7.65c0-1,0.82-1.81,1.81-1.81c1,0,1.81,0.82,1.81,1.81l-0.01,7.65l2.26,0l0.01-7.65
				c0-1,0.82-1.81,1.81-1.81c1,0,1.81,0.82,1.81,1.81l-0.01,7.65l2.26,0l0.01-7.65c0-1,0.82-1.81,1.81-1.81c1,0,1.81,0.82,1.81,1.81
				l-0.01,7.65l2.26,0l0.01-7.65c0-1,0.82-1.81,1.81-1.81c1,0,1.81,0.82,1.81,1.81l-0.01,7.65l1.95,0l-0.02,25.6l0.03-37.74l-1.95,0
				V81.42z"/>
			<path class="st0" d="M17.15,22.06c1,0,1.81,0.82,1.81,1.81l-0.01,7.94l1.88,0l0.01-7.94c0-1,0.82-1.81,1.81-1.81
				c1,0,1.81,0.82,1.81,1.81l-0.01,7.94l1.88,0l0.01-7.94c0-1,0.82-1.81,1.81-1.81c1,0,1.81,0.82,1.81,1.81l-0.01,7.94l1.88,0
				l0.01-7.94c0-1,0.82-1.81,1.81-1.81c1,0,1.81,0.82,1.81,1.81l-0.01,7.94l1.6,0l0.01-12.39l-23.33-0.02l-0.01,12.39l1.6,0
				l0.01-7.94C15.34,22.88,16.15,22.06,17.15,22.06z"/>
			<path class="st0" d="M38.96,44.22l-3.62,0l0,0l-9.96-0.01l-1.81,0l0,0l-3.47,0l-2.42,0l0,0L9.85,44.2L9.84,56.59l1.95,0
				l0.01-7.93c0-1,0.82-1.81,1.81-1.81c1,0,1.81,0.82,1.81,1.81l-0.01,7.93l2.26,0l0.01-7.93c0-1,0.82-1.81,1.81-1.81
				c1,0,1.81,0.82,1.81,1.81L21.3,56.6l2.26,0l0.01-7.93c0-1,0.82-1.81,1.81-1.81c1,0,1.81,0.82,1.81,1.81l-0.01,7.93l2.26,0
				l0.01-7.93c0-1,0.82-1.81,1.81-1.81c1,0,1.81,0.82,1.81,1.81l-0.01,7.93l2.26,0l0.01-7.93c0-1,0.82-1.81,1.81-1.81
				c1,0,1.81,0.82,1.81,1.81l-0.01,7.93l1.95,0h0l0.01-12.39l0,0L38.96,44.22L38.96,44.22z"/>
			<path class="st0" d="M15.4,68.99l-3.62,0l0,0l-1.95,0l-0.01,8.8l0,3.6l0,0l1.95,0l0.01-7.92c0-1,0.82-1.81,1.81-1.81
				c1,0,1.81,0.82,1.81,1.81l-0.01,7.92l2.26,0l0.01-7.92c0-1,0.82-1.81,1.81-1.81c1,0,1.81,0.82,1.81,1.81l-0.01,7.92l2.26,0
				l0.01-7.92c0-1,0.82-1.81,1.81-1.81c1,0,1.81,0.82,1.81,1.81l-0.01,7.92l2.26,0l0.01-7.92c0-1,0.82-1.81,1.81-1.81
				c1,0,1.81,0.82,1.81,1.81l-0.01,7.92l2.26,0l0.01-7.92c0-1,0.82-1.81,1.81-1.81c1,0,1.81,0.82,1.81,1.81l-0.01,7.92l1.95,0h0
				l0.01-12.39l0,0L15.4,68.99L15.4,68.99z"/>
			<path class="st0" d="M17.65,93.53l-2.26,0 M23.53,93.53l-2.26,0 M29.42,93.54l-2.26,0 M35.3,93.54l-2.26,0 M11.76,93.52l-1.95,0
				h0l-0.02,25.6l7.83,0.01l0.02-20.5c0-1,0.82-1.81,1.81-1.81c1,0,1.81,0.82,1.81,1.81l-0.02,20.5l-1.2,0l15.24,0.01l0.02-20.5
				c0-1,0.82-1.81,1.81-1.81c1,0,1.81,0.82,1.81,1.81l-0.02,20.5l1.95,0l0.02-25.6l-1.95,0L11.76,93.52 M15.36,119.12l-3.62,0
				l0.02-20.5c0-1,0.82-1.81,1.81-1.81c1,0,1.81,0.82,1.81,1.81L15.36,119.12z M27.13,119.13l-3.62,0l0.02-20.5
				c0-1,0.82-1.81,1.81-1.81c1,0,1.81,0.82,1.81,1.81L27.13,119.13z M33.02,119.14l-3.62,0l0.02-20.5c0-1,0.82-1.81,1.81-1.81
				c1,0,1.81,0.82,1.81,1.81L33.02,119.14z"/>
			<path class="st0" d="M18.95,31.81L18.95,31.81l0.01-7.94c0-1-0.81-1.81-1.81-1.81c-1,0-1.81,0.81-1.81,1.81l-0.01,7.94v0l0.59,0
				L18.95,31.81L18.95,31.81z"/>
			<path class="st0" d="M24.45,31.82l0.01-7.94c0-1-0.81-1.81-1.81-1.81c-1,0-1.81,0.81-1.81,1.81l-0.01,7.94v0l0,0l3.38,0
				L24.45,31.82L24.45,31.82z"/>
			<path class="st0" d="M29.96,23.88c0-1-0.81-1.81-1.81-1.81c-1,0-1.81,0.81-1.81,1.81l-0.01,7.94v0l0,0l3.62,0v0l0,0L29.96,23.88z
				"/>
			<path class="st0" d="M35.46,23.89c0-1-0.81-1.81-1.81-1.81c-1,0-1.81,0.81-1.81,1.81l-0.01,7.94l0,0l0,0l3.62,0l0,0l0,0
				L35.46,23.89z"/>
			<path class="st0" d="M13.62,34.45c-1,0-1.81,0.81-1.81,1.81L11.8,44.2l3.62,0l0.01-7.94C15.43,35.27,14.62,34.46,13.62,34.45z"/>
			<path class="st0" d="M20.1,44.21l1.2,0l0.01-7.94c0-1-0.81-1.81-1.81-1.81c-1,0-1.81,0.81-1.81,1.81l-0.01,7.94l0,0L20.1,44.21z"
				/>
			<path class="st0" d="M25.38,44.21l1.81,0l0.01-7.94c0-1-0.81-1.81-1.81-1.81c-1,0-1.81,0.81-1.81,1.81l-0.01,7.94l0,0
				L25.38,44.21z"/>
			<path class="st0" d="M31.27,34.47c-1,0-1.81,0.81-1.81,1.81l-0.01,7.94l3.62,0l0.01-7.94C33.08,35.28,32.27,34.47,31.27,34.47z"
				/>
			<path class="st0" d="M38.96,44.22L38.96,44.22l0.01-7.94c0-1-0.81-1.81-1.81-1.81c-1,0-1.81,0.81-1.81,1.81l-0.01,7.94l0,0
				L38.96,44.22z"/>
			<path class="st0" d="M15.4,68.99L15.4,68.99l0.01-7.94c0-1-0.81-1.81-1.81-1.81c-1,0-1.81,0.81-1.81,1.81l-0.01,7.94l0,0
				L15.4,68.99z"/>
			<path class="st0" d="M21.29,61.06c0-1-0.81-1.81-1.81-1.81c-1,0-1.81,0.81-1.81,1.81l-0.01,7.94l3.62,0L21.29,61.06z"/>
			<path class="st0" d="M27.18,61.06c0-1-0.81-1.81-1.81-1.81l0,0c-1,0-1.81,0.81-1.81,1.81L23.55,69l3.62,0L27.18,61.06z"/>
			<path class="st0" d="M33.06,61.07c0-1-0.81-1.81-1.81-1.81c-1,0-1.81,0.81-1.81,1.81L29.44,69l3.62,0L33.06,61.07z"/>
			<path class="st0" d="M38.95,61.07c0-1-0.81-1.81-1.81-1.81c-1,0-1.81,0.81-1.81,1.81l-0.01,7.94l3.62,0L38.95,61.07z"/>
			<path class="st0" d="M15.38,93.81l0-0.29l0.01-7.65c0-1-0.81-1.81-1.81-1.81c-1,0-1.81,0.81-1.81,1.81l-0.01,7.65l0,0.29"/>
			<path class="st0" d="M13.61,46.86c-1,0-1.81,0.81-1.81,1.81l-0.01,7.93v0.01l3.62,0V56.6l0.01-7.93
				C15.42,47.67,14.61,46.86,13.61,46.86z"/>
			<path class="st0" d="M19.5,46.86c-1,0-1.81,0.81-1.81,1.81l-0.01,7.93v0.01l3.62,0V56.6l0.01-7.93
				C21.31,47.68,20.49,46.86,19.5,46.86z"/>
			<path class="st0" d="M25.38,46.87c-1,0-1.81,0.81-1.81,1.81l-0.01,7.93v0.01l3.62,0v-0.01l0.01-7.93
				C27.19,47.68,26.38,46.87,25.38,46.87z"/>
			<path class="st0" d="M31.26,46.87c-1,0-1.81,0.81-1.81,1.81l-0.01,7.93v0.01l3.62,0v-0.01l0.01-7.93
				C33.07,47.69,32.26,46.87,31.26,46.87z"/>
			<path class="st0" d="M37.15,46.88c-1,0-1.81,0.81-1.81,1.81l-0.01,7.93v0.01l3.62,0v-0.01l0.01-7.93
				C38.96,47.69,38.14,46.88,37.15,46.88z"/>
			<path class="st0" d="M15.39,81.4v-0.02l0.01-7.92c0-1-0.81-1.81-1.81-1.81c-1,0-1.81,0.81-1.81,1.81l-0.01,7.92v0.02L15.39,81.4z
				"/>
			<path class="st0" d="M21.28,81.41v-0.02l0.01-7.92c0-1-0.81-1.81-1.81-1.81c-1,0-1.81,0.81-1.81,1.81l-0.01,7.92v0.02
				L21.28,81.41z"/>
			<path class="st0" d="M27.16,81.41V81.4l0.01-7.92c0-1-0.81-1.81-1.81-1.81c-1,0-1.81,0.81-1.81,1.81l-0.01,7.92v0.02L27.16,81.41
				z"/>
			<path class="st0" d="M33.05,81.42V81.4l0.01-7.92c0-1-0.81-1.81-1.81-1.81c-1,0-1.81,0.81-1.81,1.81l-0.01,7.92v0.02L33.05,81.42
				z"/>
			<path class="st0" d="M38.93,81.42v-0.02l0.01-7.92c0-1-0.81-1.81-1.81-1.81c-1,0-1.81,0.81-1.81,1.81l-0.01,7.92v0.02
				L38.93,81.42z"/>
			<path class="st0" d="M13.57,96.81c-1,0-1.81,0.81-1.81,1.81l-0.02,20.5l3.62,0l0.02-20.5C15.38,97.63,14.57,96.81,13.57,96.81z"
				/>
			<path class="st0" d="M21.26,98.63c0-1-0.81-1.81-1.81-1.81c-1,0-1.81,0.81-1.81,1.81l-0.02,20.5l0,0l2.42,0l1.2,0L21.26,98.63z"
				/>
			<path class="st0" d="M25.34,96.82c-1,0-1.81,0.81-1.81,1.81l-0.02,20.5l3.62,0l0.02-20.5C27.15,97.64,26.33,96.82,25.34,96.82z"
				/>
			<path class="st0" d="M31.22,96.83c-1,0-1.81,0.81-1.81,1.81l-0.02,20.5l3.62,0l0.02-20.5C33.03,97.64,32.22,96.83,31.22,96.83z"
				/>
			<path class="st0" d="M37.11,96.83c-1,0-1.81,0.81-1.81,1.81l-0.02,20.5l0,0l3.62,0l0,0l0.02-20.5
				C38.92,97.65,38.1,96.83,37.11,96.83z"/>
		</g>
		<g>
			<polygon class="st0" points="376.16,84.06 382.71,108.13 383.96,99.03 382.71,108.13 			"/>
			<polygon class="st0" points="382.71,108.13 376.16,84.06 370.79,107.96 366.86,100.18 366.85,119.11 385.7,119.13 385.7,119.13 
				381.2,119.12 			"/>
			<path class="st0" d="M376.16,84.06l6.55,24.07l1.25-9.1l3.6-26.23l-5.98-50.76c-0.1,0.01-0.2,0.03-0.31,0.03
				c-0.11,0-0.22-0.02-0.32-0.03l-4.63,37.21l-4.36-27.92c-0.22,0.07-0.45,0.12-0.69,0.12c-0.09,0-0.18-0.02-0.27-0.03l-4.15,68.78
				l3.93,7.78L376.16,84.06z"/>
			<path class="st0" d="M371.96,31.31c0.91-0.29,1.57-1.13,1.57-2.13c0-1.24-1.01-2.25-2.25-2.25c-1.24,0-2.25,1.01-2.25,2.25
				c0,1.15,0.87,2.09,1.98,2.23c0.09,0.01,0.18,0.03,0.27,0.03C371.51,31.43,371.74,31.38,371.96,31.31z"/>
			<path class="st0" d="M381.58,22.03c1.1-0.15,1.94-1.08,1.94-2.22c0-1.24-1.01-2.25-2.25-2.25c-1.24,0-2.25,1.01-2.25,2.25
				c0,1.13,0.84,2.06,1.93,2.22c0.11,0.02,0.21,0.03,0.32,0.03C381.38,22.06,381.48,22.04,381.58,22.03z"/>
			<polygon class="st0" points="399.21,119.14 413.56,119.15 413.58,100.21 409.63,107.99 404.3,84.08 397.72,108.14 			"/>
			<polygon class="st0" points="394.71,119.13 398.96,119.14 394.71,119.13 			"/>
			<path class="st0" d="M413.58,100.21l-4.05-68.78c-0.09,0.01-0.18,0.03-0.27,0.03c-0.24,0-0.47-0.05-0.69-0.12l-4.4,27.92
				l-4.57-37.22c-0.11,0.02-0.21,0.03-0.32,0.03c-0.11,0-0.21-0.02-0.31-0.03l-6.06,50.76l4.8,35.34l6.58-24.06l5.33,23.91
				L413.58,100.21z"/>
			<polygon class="st0" points="390.25,53.2 387.56,72.79 383.96,99.03 382.71,108.13 381.2,119.12 385.7,119.13 390.2,119.13 
				394.71,119.13 398.96,119.14 399.21,119.14 399.21,119.14 397.72,108.14 			"/>
			<path class="st0" d="M409.53,31.43c1.12-0.13,1.99-1.07,1.99-2.22c0-1.24-1.01-2.25-2.25-2.25c-1.24,0-2.25,1.01-2.25,2.25
				c0,1,0.66,1.84,1.56,2.14c0.22,0.07,0.45,0.12,0.69,0.12C409.36,31.46,409.44,31.44,409.53,31.43z"/>
			<path class="st0" d="M399.6,22.04c1.09-0.16,1.93-1.09,1.93-2.22c0-1.24-1.01-2.25-2.25-2.25c-1.24,0-2.25,1.01-2.25,2.25
				c0,1.14,0.85,2.07,1.94,2.22c0.1,0.01,0.2,0.03,0.31,0.03C399.39,22.07,399.5,22.06,399.6,22.04z"/>
		</g>
		<g>
			<polygon class="st0" points="160.23,59.73 161.06,59.73 160.76,59.73 			"/>
			<polygon class="st0" points="123.37,61.12 122.3,61.11 118.16,61.1 126.42,61.13 126.42,61.13 			"/>
			
				<rect x="111.84" y="78.48" transform="matrix(3.234326e-03 -1 1 3.234326e-03 32.8695 192.1075)" class="st0" width="1.93" height="2.17"/>
			<polygon class="st0" points="148.6,79.05 148.58,85.42 151.25,85.43 151.26,81.91 151.26,81.91 151.27,78.72 149.39,78.72 
				149.39,79.05 			"/>
			<polygon class="st0" points="169.06,78.78 169.06,78.78 169.06,78.78 			"/>
			<polygon class="st0" points="169,97.2 169.06,78.78 169,97.2 			"/>
			<polygon class="st0" points="164.65,119.12 157.58,119.1 168.93,119.14 168.93,119.14 164.65,119.12 			"/>
			<polygon class="st0" points="142.61,119.05 142.61,119.05 134.22,119.02 134.29,94.93 134.29,94.93 134.32,85.38 137.85,85.39 
				137.87,79.02 136.09,79.01 131.67,79 131.66,83.44 131.66,83.44 131.54,119.02 115.63,118.97 115.72,90.09 97.94,90.04 
				97.85,118.91 101.45,118.92 101.45,118.92 145.24,119.06 143.56,119.05 			"/>
			<path class="st0" d="M131.23,59.13c-0.54,1.25-1.83,2.01-3.2,2l-1.61-0.01v0l1.78,0.01l-0.04,12.74l3.53,0.01L131.67,79
				l4.42,0.01l1.78,0.01l0.02-5.95l8.55,0.03l-2.65-0.01l-1.07,0l-4.66-0.01c-1.36,0-2.65-0.77-3.18-2.02
				c-1-2.35-0.54-7.11,8.42-16.03l0-0.03c0.01,0.01,0.01,0.01,0.02,0.02c0.01-0.01,0.01-0.01,0.02-0.02l0,0.03
				c0.58,0.58,1.12,1.15,1.63,1.7l-5.94-29.46l-2.77-0.01l-2.77-0.01l-4.72,22.7C131.93,54.61,131.95,57.47,131.23,59.13z"/>
			<polygon class="st0" points="148.6,79.05 149.39,79.05 149.39,78.72 149.39,78.72 148.61,74.85 			"/>
			<polygon class="st0" points="111.71,80.53 111.72,78.6 111.75,67.79 111.57,67.78 111.57,67.78 106.91,67.77 105.83,67.77 
				102.57,67.76 101.02,67.75 100.98,80.49 			"/>
			<polygon class="st0" points="128.16,73.87 128.2,61.13 126.42,61.13 118.16,61.1 117.64,61.1 117.64,61.1 117.47,61.1 
				117.43,73.84 			"/>
			<polygon class="st0" points="146.44,73.09 137.89,73.07 137.87,79.02 137.85,85.39 148.58,85.42 148.6,79.05 148.61,74.85 
				148.62,73.1 148.45,73.1 148.45,73.1 			"/>
			<polygon class="st0" points="115.75,83.39 115.72,90.09 115.63,118.97 131.54,119.02 131.66,83.44 			"/>
			<polygon class="st0" points="165.59,59.74 165.43,59.74 165.43,59.74 161.06,59.73 160.23,59.73 159.69,59.72 159.39,59.72 
				154.86,59.71 154.82,72.37 165.55,72.4 			"/>
			<polygon class="st0" points="115.72,90.09 115.75,83.39 131.66,83.44 131.66,83.44 131.67,79 131.69,73.88 128.16,73.87 
				117.43,73.84 113.9,73.83 113.89,78.61 113.88,80.53 111.71,80.53 100.98,80.49 97.97,80.48 97.94,90.04 			"/>
			<polygon class="st0" points="134.29,94.93 134.22,119.02 142.61,119.05 142.67,99.67 148.82,94.98 			"/>
			<polygon class="st0" points="169.05,81.97 151.26,81.91 151.25,85.43 152.11,85.43 152.08,92.49 157.53,88.33 169,97.2 
				169.06,78.78 169.06,78.78 			"/>
			<polygon class="st0" points="151.25,85.43 148.58,85.42 137.85,85.39 134.32,85.38 134.29,94.93 134.29,94.93 148.82,94.98 
				152.08,92.49 152.11,85.43 			"/>
			<polygon class="st0" points="151.26,81.91 169.05,81.97 169.06,78.78 169.06,78.78 169.08,72.41 165.55,72.4 154.82,72.37 
				151.29,72.35 151.27,78.72 151.26,81.91 			"/>
			<path class="st0" d="M106.91,67.77l4.66,0.01l0,0c1.36,0,2.66-0.75,3.2-2c1.01-2.35,0.58-7.11-8.32-16.08l0-0.03
				c-0.01,0.01-0.01,0.01-0.02,0.02c-0.01-0.01-0.01-0.01-0.02-0.02l0,0.03c-8.96,8.92-9.42,13.68-8.42,16.03
				c0.53,1.25,1.82,2.02,3.18,2.02l1.4,0l3.26,0.01L106.91,67.77z"/>
			<path class="st0" d="M118.16,61.1l4.14,0.01l1.07,0l3.05,0.01l1.61,0.01c1.36,0,2.66-0.75,3.2-2c0.71-1.65,0.7-4.51-2.48-9.19
				c-1.33-1.96-3.21-4.24-5.84-6.89l0-0.03c-0.01,0.01-0.01,0.01-0.02,0.02c-0.01-0.01-0.01-0.01-0.02-0.02l0,0.03
				c-8.96,8.92-9.42,13.68-8.42,16.03c0.53,1.25,1.82,2.02,3.18,2.02h0L118.16,61.1z"/>
			<path class="st0" d="M143.33,54.98c-0.01,0.01-0.01,0.01-0.02,0.02c-0.01-0.01-0.01-0.01-0.02-0.02l0,0.03
				c-8.96,8.92-9.42,13.68-8.42,16.03c0.53,1.25,1.82,2.02,3.18,2.02l4.66,0.01l1.07,0l2.65,0.01l2.01,0.01l0,0
				c1.36,0,2.66-0.75,3.2-2c0.95-2.19,0.63-6.5-6.69-14.39c-0.51-0.55-1.05-1.11-1.63-1.7L143.33,54.98z"/>
			<path class="st0" d="M160.23,59.73l0.54,0l0.3,0l4.36,0.01h0c1.36,0,2.66-0.75,3.2-2c1.01-2.35,0.59-7.11-8.32-16.08l0-0.03
				c-0.01,0.01-0.01,0.01-0.02,0.02c-0.01-0.01-0.01-0.01-0.02-0.02l0,0.03c-8.96,8.92-9.42,13.68-8.42,16.03
				c0.53,1.25,1.82,2.02,3.18,2.02l4.36,0.01l0.3,0L160.23,59.73z"/>
			<path class="st0" d="M139.31,27.25c0.9,0,1.74-0.49,2.1-1.32c0.67-1.54,0.38-4.67-5.47-10.56l0-0.02c0,0-0.01,0.01-0.01,0.01
				c0,0-0.01-0.01-0.01-0.01l0,0.02c-5.89,5.86-6.19,8.98-5.53,10.53c0.35,0.82,1.2,1.33,2.09,1.33l3.06,0.01l0.7,0l2.77,0.01
				L139.31,27.25z"/>
			<path class="st0" d="M142.67,99.67l-0.06,19.39l0,0l0.95,0l6.65,0.02l0.02-7.11c0.01-4.03,3.32-7.32,7.35-7.3
				c3.91,0.01,7.1,3.22,7.09,7.13l-0.02,7.33l4.28,0.01l3.32,0.01l0.06-19.39L142.67,99.67z"/>
			<polygon class="st0" points="169,97.2 157.53,88.33 152.08,92.49 148.82,94.98 142.67,99.67 172.31,99.76 169,97.2 			"/>
			<path class="st0" d="M164.65,119.12l0.02-7.33c0.01-3.91-3.18-7.12-7.09-7.13c-4.03-0.01-7.34,3.27-7.35,7.3l-0.02,7.11
				l-6.65-0.02l1.68,0.01l6.76,0.02l0,0l5.58,0.02L164.65,119.12L164.65,119.12z"/>
		</g>
		<g>
			<polygon class="st0" points="778.91,73.03 775.96,73.04 772.26,90.41 778.95,90.4 785.63,90.39 781.85,73.03 			"/>
			<polygon class="st0" points="775.96,73.04 771.47,73.05 765.96,90.43 772.26,90.41 			"/>
			<polygon class="st0" points="778.96,95.67 794.46,95.64 794.46,95.64 795.55,95.64 795.54,90.36 791.93,90.37 785.63,90.39 
				778.95,90.4 772.26,90.41 765.96,90.43 762.35,90.44 762.37,95.64 763.45,95.71 763.45,95.71 			"/>
			<polygon class="st0" points="778.91,73.03 781.85,73.03 784.74,73.02 788.37,73.01 788.36,68.83 778.9,68.85 769.44,68.87 
				769.45,73.05 771.47,73.05 775.96,73.04 			"/>
			<polygon class="st0" points="779.53,18.45 779.51,8.69 778.03,8.69 778.05,18.46 778.79,18.46 			"/>
			<polygon class="st0" points="785.63,90.39 791.93,90.37 786.35,73.02 784.74,73.02 781.85,73.03 			"/>
			<path class="st0" d="M760.4,119.13c0,0,0.74-15.35,18.57-15.39c17.83-0.04,18.6,15.47,18.6,15.47l9.5-0.18l-12.01-22.28
				l-0.6-1.11l-15.51,0.03l-15.51,0.03l-0.59,1.11l-11.92,22.33L760.4,119.13z"/>
			<polygon class="st0" points="778.9,68.85 785.88,68.83 781.92,27.67 778.81,27.68 775.7,27.69 771.92,68.86 			"/>
			<polygon class="st0" points="781.92,27.67 783.54,27.67 783.53,24.18 778.8,24.19 774.07,24.2 774.08,27.69 775.7,27.69 
				778.81,27.68 			"/>
			<polygon class="st0" points="781.74,18.45 779.53,18.45 778.79,18.46 778.05,18.46 775.84,18.46 775.86,24.2 778.8,24.19 
				781.75,24.19 			"/>
		</g>
		<g>
			<rect x="679.01" y="112.66" class="st0" width="0" height="3.05"/>
			<polygon class="st0" points="688.71,114.19 686.47,114.19 698.51,114.2 688.71,114.19 			"/>
			<path class="st0" d="M659.78,114.18l0-7.36c0-2.02,1.65-3.66,3.67-3.66c2.02,0,3.66,1.65,3.66,3.67l0,7.36l-6.46,0l9.51,0l0-7.36
				c0-2.02,1.65-3.66,3.67-3.66c2.02,0,3.66,1.65,3.66,3.67l0,7.36l3.05,0l0.01-31.02l-8.42,0l-8.68,0l0,0l-6.36,0l-0.01,31.02
				L659.78,114.18z M670.17,92.1c0-2.02,1.65-3.66,3.67-3.66c2.02,0,3.66,1.65,3.66,3.67l0,7.36l-7.33,0L670.17,92.1z M659.79,92.09
				c0-2.02,1.65-3.66,3.67-3.66c2.02,0,3.66,1.65,3.66,3.67l0,7.36l-7.33,0L659.79,92.09z"/>
			<polygon class="st0" points="657.09,114.18 657.1,83.16 657.1,79.57 653.53,79.57 653.52,114.18 			"/>
			<path class="st0" d="M677.15,79.44l0,0.13c0.05-0.07,4.04-5.46-6.84-11.71c-10.88,6.24-6.91,11.63-6.85,11.71v-0.13L677.15,79.44
				z"/>
			<polygon class="st0" points="708.14,114.2 700.41,114.2 698.51,114.2 698.48,114.2 693.8,114.2 688.71,114.19 688.71,114.19 
				698.51,114.2 708.32,114.2 708.32,114.2 708.14,114.2 			"/>
			<path class="st0" d="M667.11,106.82c0-2.02-1.65-3.66-3.66-3.67c-2.02,0-3.66,1.65-3.67,3.66l0,7.36l0.87,0l6.46,0L667.11,106.82
				z"/>
			<path class="st0" d="M677.49,106.83c0-2.02-1.65-3.66-3.66-3.67c-2.02,0-3.66,1.65-3.67,3.66l0,7.36l7.33,0l0,0L677.49,106.83z"
				/>
			<path class="st0" d="M667.11,92.1c0-2.02-1.65-3.66-3.66-3.67c-2.02,0-3.66,1.65-3.67,3.66l0,7.36l7.33,0L667.11,92.1z"/>
			<path class="st0" d="M677.5,92.1c0-2.02-1.65-3.66-3.66-3.67c-2.02,0-3.66,1.65-3.67,3.66l0,7.36l7.33,0L677.5,92.1z"/>
			<polygon class="st0" points="743.35,83.19 743.35,83.19 743.34,114.21 			"/>
			<path class="st0" d="M715.91,114.2L715.91,114.2l14.26,0l-0.43,0l0-7.36c0-2.02,1.65-3.66,3.67-3.66c2.02,0,3.66,1.65,3.66,3.67
				l0,7.36l2.69,0l0.01-31.02l-6.36,0l0,0l-13.7,0l0,0l-3.4,0l-0.01,31.02L715.91,114.2z M729.76,92.12c0-2.02,1.65-3.66,3.67-3.66
				s3.66,1.65,3.66,3.67l0,7.36l-7.33,0L729.76,92.12z M719.37,92.11c0-2.02,1.65-3.66,3.67-3.66c2.02,0,3.66,1.65,3.66,3.67l0,7.36
				l-7.33,0L719.37,92.11z M719.37,106.84c0-2.02,1.65-3.66,3.67-3.66c2.02,0,3.66,1.65,3.66,3.67l0,7.36l-7.33,0L719.37,106.84z"/>
			<polygon class="st0" points="739.77,114.21 743.34,114.21 743.35,83.19 743.35,79.6 739.78,79.6 739.78,83.19 739.77,114.21 			
				"/>
			<path class="st0" d="M680.54,114.19l5.93,0l2.24,0l5.09,0l-5.27,0l0.01-19.7c0-5.39,4.42-9.8,9.81-9.8c5.39,0,9.8,4.42,9.8,9.81
				l-0.01,19.7h0.17l7.6,0l0.4,0l0.01-31.02l0-5.06l-17.8-0.01h-0.17l-17.8-0.01l0,5.06L680.54,114.19L680.54,114.19z"/>
			<polygon class="st0" points="698.51,114.2 700.41,114.2 698.48,114.2 			"/>
			<polygon class="st0" points="698.53,78.12 716.33,78.13 716.33,70.67 698.53,70.66 698.36,70.66 680.56,70.66 680.55,78.11 
				698.35,78.12 			"/>
			<polygon class="st0" points="672.14,83.17 677.15,83.17 677.15,79.57 677.15,79.44 663.45,79.44 663.45,79.57 663.45,83.17 
				663.45,83.17 			"/>
			<polygon class="st0" points="733.42,83.19 733.42,83.19 733.42,79.59 733.42,79.6 726.58,79.59 719.73,79.59 719.73,79.59 
				719.73,83.19 719.73,83.19 			"/>
			<path class="st0" d="M698.53,70.66l17.8,0.01c0,0,10.74-14.18-17.79-30.66c0-0.03,0-0.07,0-0.1c-0.03,0.02-0.06,0.03-0.09,0.05
				c-0.03-0.02-0.06-0.03-0.09-0.05c0,0.03,0,0.07,0,0.1c-28.54,16.45-17.81,30.65-17.81,30.65l17.8,0.01L698.53,70.66z"/>
			<path class="st0" d="M726.58,79.59l6.85,0c0,0,0,0,0,0c0.05-0.07,4.03-5.46-6.84-11.71c-10.88,6.24-6.91,11.64-6.85,11.71
				c0,0,0,0,0,0L726.58,79.59z"/>
			<path class="st0" d="M700.41,114.2l7.73,0l0,0l0.01-19.7c0-5.39-4.41-9.81-9.8-9.81c-5.39,0-9.81,4.41-9.81,9.8l-0.01,19.7
				l5.27,0l4.68,0L700.41,114.2z"/>
			<path class="st0" d="M733.42,103.18c-2.02,0-3.66,1.65-3.67,3.66l0,7.36l0.43,0l6.9,0v0l0-7.36
				C737.08,104.83,735.43,103.18,733.42,103.18z"/>
			<path class="st0" d="M726.7,106.84c0-2.02-1.65-3.66-3.66-3.67c-2.02,0-3.66,1.65-3.67,3.66l0,7.36l7.33,0L726.7,106.84z"/>
			<path class="st0" d="M737.08,92.12c0-2.02-1.65-3.66-3.66-3.67s-3.66,1.65-3.67,3.66l0,7.36l7.33,0L737.08,92.12z"/>
			<path class="st0" d="M726.7,92.12c0-2.02-1.65-3.66-3.66-3.67c-2.02,0-3.66,1.65-3.67,3.66l0,7.36l7.33,0L726.7,92.12z"/>
			<polygon class="st0" points="708.32,114.2 698.51,114.2 686.47,114.19 680.54,114.19 677.49,114.19 670.16,114.19 660.65,114.18 
				659.78,114.18 657.09,114.18 653.52,114.18 653.11,114.18 653.11,119.11 743.91,119.15 743.91,114.21 			"/>
		</g>
		<g>
			
				<rect x="229.96" y="59.95" transform="matrix(1 -1.022929e-03 1.022929e-03 1 -0.0915 0.2454)" class="st0" width="19.73" height="59.18"/>
			<path class="st0" d="M248.47,37.11l-7.99,0.01l-12.13,0.01l0.02,22.83l1.55,0l19.73-0.02l1.55,0l-0.02-22.83L248.47,37.11
				L248.47,37.11z M239.77,40.3c4.55,0,8.24,3.68,8.24,8.22c0,4.55-3.68,8.24-8.22,8.24c-4.55,0-8.24-3.68-8.24-8.22
				C231.54,44,235.23,40.31,239.77,40.3z"/>
			<polygon class="st0" points="245.19,19.91 239.94,19.91 239.75,19.92 239.7,19.92 234.31,19.92 234.32,26.72 245.19,26.71 			"/>
			<polygon class="st0" points="248.47,37.11 248.46,32.76 231.07,32.78 231.07,37.13 240.48,37.12 248.47,37.11 			"/>
			<path class="st0" d="M239.79,56.77c4.55,0,8.23-3.69,8.22-8.24c0-4.55-3.69-8.23-8.24-8.22c-4.55,0-8.23,3.69-8.22,8.24
				C231.55,53.09,235.24,56.77,239.79,56.77z"/>
			<polygon class="st0" points="245.19,26.71 234.32,26.72 231.07,32.78 248.46,32.76 			"/>
			<polygon class="st0" points="239.94,19.91 243.25,19.91 239.74,4.5 236.26,19.92 239.7,19.92 239.75,19.92 			"/>
		</g>
		<g>
			
				<rect x="816.13" y="81.99" transform="matrix(1 -2.031857e-03 2.031857e-03 1 -0.2026 1.684)" class="st0" width="25.16" height="37.13"/>
			<polygon class="st0" points="841.24,72.96 837.36,72.97 837.36,72.97 819.96,73 819.96,73 816.08,73.01 816.1,82.02 
				841.26,81.97 			"/>
			<path class="st0" d="M837.36,72.97L837.36,72.97l-0.04-21.75l0.01,4.35l-17.4,0.04l-0.01-4.35L819.96,73v0L837.36,72.97z
				 M828.63,59.24c2.79-0.01,5.05,2.25,5.06,5.04c0.01,2.79-2.25,5.05-5.04,5.06c-2.79,0.01-5.05-2.25-5.06-5.04
				C823.59,61.51,825.84,59.24,828.63,59.24z"/>
			<polygon class="st0" points="834.03,37.64 823.15,37.66 823.18,51.25 823.21,51.25 834.05,51.23 			"/>
			<polygon class="st0" points="837.32,55.57 837.32,51.22 834.05,51.23 823.21,51.25 819.92,51.26 819.93,55.61 			"/>
			<path class="st0" d="M828.65,69.34c2.79-0.01,5.04-2.27,5.04-5.06c-0.01-2.79-2.27-5.04-5.06-5.04
				c-2.79,0.01-5.04,2.27-5.04,5.06C823.6,67.09,825.87,69.34,828.65,69.34z"/>
			<polygon class="st0" points="828.92,18.31 828.55,18.12 828.18,18.31 823.15,37.66 834.03,37.64 			"/>
			<polygon class="st0" points="828.92,18.31 831.46,19.64 830.9,16.4 833.25,14.1 830,13.64 828.53,10.69 827.08,13.64 
				823.83,14.12 826.19,16.41 825.64,19.66 828.18,18.31 828.55,18.12 			"/>
		</g>
		<g>
			<path class="st0" d="M440.68,26.19c1.27,0,2.42,0.78,3.25,2.03l0-3.15c0-2.34-1-4.32-2.36-4.94l0.02-12.79
				c0-0.49-0.4-0.89-0.89-0.89c-0.49,0-0.89,0.4-0.89,0.89l-0.02,12.79c-1.36,0.62-2.37,2.59-2.37,4.93l0,3.15
				C438.25,26.96,439.4,26.19,440.68,26.19z"/>
			
				<rect x="415.31" y="69" transform="matrix(1.388651e-03 -1 1 1.388651e-03 360.9915 519.4929)" class="st0" width="50.58" height="20"/>
			<polygon class="st0" points="454.76,104.31 450.57,104.3 430.57,104.27 426.38,104.27 426.36,119.11 454.73,119.15 			"/>
			<path class="st0" d="M440.67,29.73L440.67,29.73c1.86,0,3.51,1.11,4.54,2.78c-0.07-1.66-0.54-3.17-1.28-4.29
				c-0.83-1.25-1.98-2.03-3.25-2.03s-2.43,0.78-3.26,2.02c-0.75,1.12-1.22,2.63-1.29,4.29C437.16,30.83,438.81,29.73,440.67,29.73z"
				/>
			<path class="st0" d="M440.66,35.6c2.37,0,4.45,1.25,5.66,3.12l0-2.23c0-1.49-0.42-2.86-1.11-3.98c-1.03-1.67-2.68-2.77-4.54-2.78
				l0,0c-1.86,0-3.51,1.1-4.55,2.76c-0.69,1.12-1.12,2.48-1.12,3.97l0,2.23C436.21,36.84,438.29,35.6,440.66,35.6z"/>
			<path class="st0" d="M447.4,42.35c0-1.34-0.4-2.58-1.08-3.64c-1.2-1.87-3.28-3.11-5.66-3.12c-2.37,0-4.46,1.24-5.66,3.1
				c-0.68,1.05-1.09,2.29-1.09,3.63l-0.02,11.37l13.49,0.02L447.4,42.35z"/>
		</g>
		<g>
			<polygon class="st0" points="193.56,45.77 194.92,45.77 194.71,105.03 195.07,105.03 195.02,119.07 208.75,119.11 206.65,119.11 
				206.29,119.11 206.55,45.81 210.12,45.83 210.12,45.83 207.91,45.82 207.93,37.91 210.14,37.92 210.16,32.75 200.16,32.72 
				190.16,32.68 190.14,37.85 193.59,37.86 			"/>
			<polygon class="st0" points="190.11,45.76 190.11,45.76 191.35,45.76 			"/>
			<polygon class="st0" points="191.45,119.05 187.53,119.04 187.53,119.04 			"/>
			<polygon class="st0" points="194.71,105.03 194.92,45.77 193.56,45.77 193.56,45.77 191.35,45.76 190.11,45.76 187.79,45.75 
				187.58,105.01 			"/>
			<polygon class="st0" points="193.56,45.77 193.56,45.77 193.59,37.86 190.14,37.85 189.17,37.84 189.14,45.75 190.11,45.76 
				191.35,45.76 			"/>
			<polygon class="st0" points="195.02,119.07 195.02,119.07 195.07,105.03 194.71,105.03 187.58,105.01 185.87,105 185.83,119.03 
				187.53,119.04 191.45,119.05 			"/>
			
				<rect x="180.49" y="113.68" transform="matrix(3.495084e-03 -1 1 3.495084e-03 69.6042 299.1196)" class="st0" width="8.79" height="1.91"/>
			<polygon class="st0" points="207.91,45.82 210.12,45.83 212.32,45.83 212.35,37.93 210.14,37.92 207.93,37.91 			"/>
			<polygon class="st0" points="206.29,119.11 206.65,119.11 206.52,119.11 206.57,105.07 213.47,105.1 213.68,45.84 210.12,45.83 
				206.55,45.81 			"/>
			<polygon class="st0" points="206.57,105.07 206.52,119.11 206.65,119.11 208.75,119.11 215.71,119.14 215.74,110.35 
				215.74,110.35 215.76,105.11 213.47,105.1 			"/>
			<polygon class="st0" points="215.71,119.14 217.62,119.15 217.65,110.36 215.74,110.35 215.74,110.35 			"/>
			<path class="st0" d="M201.1,18.19L201.1,18.19l0.04-10.89c0-0.49-0.4-0.89-0.89-0.89c-0.49,0-0.89,0.4-0.89,0.89l-0.04,10.89l0,0
				L201.1,18.19z"/>
			<path class="st0" d="M210.16,32.75c0,0-0.29-6.57-6.33-6.59v0l-7.29-0.03l0,0h0c-6.05-0.02-6.38,6.55-6.38,6.55l10,0.04
				L210.16,32.75z"/>
			<polygon class="st0" points="203.83,26.16 203.83,26.16 201.1,18.19 201.1,18.19 199.32,18.19 199.32,18.19 196.54,26.13 
				196.54,26.13 			"/>
		</g>
		<g>
			<polygon class="st0" points="508.21,64.06 466.41,64.02 466.41,66.29 510.49,66.34 			"/>
			<polygon class="st0" points="551.57,98.88 552.64,98.88 551.88,98.88 			"/>
			<path class="st0" d="M467.79,107.12c0,0-0.19-3.57,3.25-3.57c3.44,0,3.24,3.58,3.24,3.58l-0.01,5.53l-3.25,0l-1.96,0l10.8,0.01
				l-3.11,0l0.01-5.53c0,0-0.19-3.57,3.25-3.57c3.44,0,3.24,3.58,3.24,3.58l-0.01,5.53l-3.14,0l29.83,0.03l-2.99,0l-3.25,0
				l0.01-5.53c0,0-0.19-3.57,3.25-3.57c3.44,0,3.24,3.58,3.24,3.58l-0.01,5.53l26.08,0.03l-2.38,0l-3.25,0l0.01-5.53
				c0,0-0.19-3.57,3.25-3.57c3.44,0,3.24,3.58,3.24,3.58l-0.01,5.53l28.6,0.03l0.01-10.66l-99.39-0.1l-0.01,10.66l1.42,0
				L467.79,107.12z M560.86,103.64c3.44,0,3.24,3.58,3.24,3.58l-0.01,5.53l-3.25,0l-3.25,0l0.01-5.53
				C557.61,107.21,557.42,103.63,560.86,103.64z M551.87,103.63c3.44,0,3.24,3.58,3.24,3.58l-0.01,5.53l-3.25,0l-3.25,0l0.01-5.53
				C548.62,107.2,548.44,103.62,551.87,103.63z M542.89,103.62c3.44,0,3.24,3.58,3.24,3.58l-0.01,5.53l-3.25,0l-3.25,0l0.01-5.53
				C539.64,107.19,539.45,103.62,542.89,103.62z M524.93,103.6c3.44,0,3.24,3.58,3.24,3.58l-0.01,5.53l-3.25,0l-3.25,0l0.01-5.53
				C521.68,107.17,521.49,103.6,524.93,103.6z M515.95,103.59c3.44,0,3.24,3.58,3.24,3.58l-0.01,5.53l-3.25,0l-3.25,0l0.01-5.53
				C512.7,107.16,512.51,103.59,515.95,103.59z M497.99,103.57c3.44,0,3.24,3.58,3.24,3.58l-0.01,5.53l-3.25,0l-3.25,0l0.01-5.53
				C494.74,107.14,494.55,103.57,497.99,103.57z M489,103.56c3.44,0,3.24,3.58,3.24,3.58l-0.01,5.53l-3.25,0l-3.25,0l0.01-5.53
				C485.75,107.13,485.56,103.56,489,103.56z"/>
			<path class="st0" d="M467.81,93.26c0,0-0.19-3.57,3.25-3.57c3.44,0,3.24,3.58,3.24,3.58l-0.01,5.53l2.49,0l0.01-5.53
				c0,0-0.19-3.57,3.25-3.57c3.44,0,3.24,3.58,3.24,3.58l-0.01,5.53l2.49,0l0.01-5.53c0,0-0.19-3.57,3.25-3.57
				c3.44,0,3.24,3.58,3.24,3.58l-0.01,5.53l2.49,0l0.01-5.53c0,0-0.19-3.57,3.25-3.57c3.44,0,3.24,3.58,3.24,3.58l-0.01,5.53l2.49,0
				l0.01-5.53c0,0-0.19-3.57,3.25-3.57c3.44,0,3.24,3.58,3.24,3.58l-0.01,5.53l2.49,0l0.01-5.53c0,0-0.19-3.57,3.25-3.57
				c3.44,0,3.24,3.58,3.24,3.58l-0.01,5.53l2.49,0l0.01-5.53c0,0-0.19-3.57,3.25-3.57c3.44,0,3.24,3.58,3.24,3.58l-0.01,5.53l2.49,0
				l0.01-5.53c0,0-0.19-3.57,3.25-3.57c3.44,0,3.24,3.58,3.24,3.58l-0.01,5.53l2.49,0l0.01-5.53c0,0-0.19-3.57,3.25-3.57
				c3.44,0,3.24,3.58,3.24,3.58l-0.01,5.53l2.49,0l0.01-5.53c0,0-0.19-3.57,3.25-3.57c3.44,0,3.24,3.58,3.24,3.58l-0.01,5.53l2.49,0
				l0.01-5.53c0,0-0.19-3.57,3.25-3.57c3.44,0,3.24,3.58,3.24,3.58l-0.01,5.53l1.66,0l0,0.84l0.01-11.5l-99.39-0.1l0-2.51
				l-0.01,13.16l1.42,0L467.81,93.26z"/>
			<path class="st0" d="M471.06,84.94l-3.25,0l0.01-5.53c0,0-0.19-3.57,3.25-3.57c3.44,0,3.24,3.58,3.24,3.58l-0.01,5.53l2.24,0
				l0.01-5.53c0,0-0.19-3.57,3.25-3.57c3.44,0,3.24,3.58,3.24,3.58l-0.01,5.53l-0.24,0l6.87,0.01l-1.14,0l-3.25,0l0.01-5.53
				c0,0-0.19-3.57,3.25-3.57c3.44,0,3.24,3.58,3.24,3.58l-0.01,5.53l2.24,0l0.01-5.53c0,0-0.19-3.57,3.25-3.57
				c3.44,0,3.24,3.58,3.24,3.58l-0.01,5.53l-2.22,0l4.46,0l0.01-5.53c0,0-0.19-3.57,3.25-3.57c3.44,0,3.24,3.58,3.24,3.58
				l-0.01,5.53l2.24,0l0.01-5.53c0,0-0.19-3.57,3.25-3.57c3.44,0,3.24,3.58,3.24,3.58l-0.01,5.53l-1.23,0L529.11,85l-18.62-18.66
				l-44.08-0.05l-0.02,18.64l7.02,0.01L471.06,84.94z"/>
			<polygon class="st0" points="501.68,57.51 466.42,57.48 466.41,64.02 508.21,64.06 			"/>
			<polygon class="st0" points="565.75,112.75 537.15,112.72 537.15,112.72 536.28,112.72 510.2,112.69 510.2,112.69 509.95,112.69 
				480.12,112.66 480.01,112.66 479.87,112.66 469.08,112.65 467.79,112.65 467.79,112.65 466.36,112.65 466.36,119.04 
				565.74,119.15 			"/>
			<polygon class="st0" points="565.77,88.23 565.77,88.23 565.78,85.03 529.11,85 516.76,84.98 514.74,84.98 511.49,84.98 
				511.49,84.98 509.25,84.98 509.25,84.98 506,84.97 502.76,84.97 502.76,84.97 498.3,84.96 497.27,84.96 494.02,84.96 
				494.02,84.96 491.78,84.96 491.78,84.96 489.67,84.96 482.8,84.95 479.8,84.95 476.55,84.94 476.55,84.94 474.31,84.94 
				474.31,84.94 473.41,84.94 466.39,84.93 466.39,84.93 466.39,85.62 466.39,88.13 			"/>
			<polygon class="st0" points="565.76,102.09 565.76,99.74 565.76,98.89 564.11,98.89 564.11,98.89 560.86,98.89 557.61,98.88 
				557.61,98.88 555.13,98.88 555.13,98.88 552.64,98.88 551.57,98.88 548.63,98.87 548.63,98.87 546.14,98.87 546.14,98.87 
				542.9,98.87 539.65,98.86 539.65,98.86 537.16,98.86 537.16,98.86 533.92,98.86 530.67,98.85 530.67,98.85 528.18,98.85 
				528.18,98.85 524.94,98.85 521.69,98.85 521.69,98.85 519.2,98.84 519.2,98.84 515.95,98.84 512.71,98.84 512.71,98.84 
				510.22,98.83 510.22,98.83 506.97,98.83 503.73,98.83 503.73,98.83 501.24,98.82 501.24,98.82 497.99,98.82 494.74,98.82 
				494.74,98.82 492.26,98.82 492.26,98.82 489.01,98.81 485.76,98.81 485.76,98.81 483.27,98.81 483.27,98.81 480.03,98.8 
				476.78,98.8 476.78,98.8 474.29,98.8 474.29,98.8 471.05,98.79 467.8,98.79 467.8,98.79 466.38,98.79 466.38,98.79 
				466.37,101.99 466.37,101.99 565.76,102.09 			"/>
			<path class="st0" d="M471.07,75.83c-3.44,0-3.25,3.57-3.25,3.57l-0.01,5.53l3.25,0l2.35,0l0.89,0l0,0l0.01-5.53
				C474.31,79.41,474.51,75.83,471.07,75.83z"/>
			<path class="st0" d="M483.05,79.42c0,0,0.2-3.57-3.24-3.58c-3.44,0-3.25,3.57-3.25,3.57l-0.01,5.53l0,0l3.25,0l3,0l0.24,0
				L483.05,79.42z"/>
			<path class="st0" d="M488.54,75.85c-3.44,0-3.25,3.57-3.25,3.57l-0.01,5.53l3.25,0l1.14,0l2.11,0v0l0.01-5.53
				C491.78,79.43,491.98,75.85,488.54,75.85z"/>
			<path class="st0" d="M500.52,79.44c0,0,0.2-3.57-3.24-3.58c-3.44,0-3.25,3.57-3.25,3.57l-0.01,5.53l0,0l3.25,0l1.03,0l2.22,0
				L500.52,79.44z"/>
			<path class="st0" d="M506.01,75.87c-3.44,0-3.25,3.57-3.25,3.57l-0.01,5.53l0,0l3.25,0l3.25,0v0l0.01-5.53
				C509.26,79.44,509.45,75.87,506.01,75.87z"/>
			<path class="st0" d="M517.99,79.45c0,0,0.2-3.57-3.24-3.58c-3.44,0-3.25,3.57-3.25,3.57l-0.01,5.53v0l3.25,0l2.02,0l1.23,0
				L517.99,79.45z"/>
			<path class="st0" d="M471.06,89.69c-3.44,0-3.25,3.57-3.25,3.57l-0.01,5.53l0,0l3.25,0l3.25,0v0l0.01-5.53
				C474.3,93.27,474.49,89.69,471.06,89.69z"/>
			<path class="st0" d="M480.04,89.7c-3.44,0-3.25,3.57-3.25,3.57l-0.01,5.53v0l3.25,0l3.25,0v0l0.01-5.53
				C483.28,93.27,483.48,89.7,480.04,89.7z"/>
			<path class="st0" d="M489.02,89.71c-3.44,0-3.25,3.57-3.25,3.57l-0.01,5.53v0l3.25,0l3.25,0v0l0.01-5.53
				C492.26,93.28,492.46,89.71,489.02,89.71z"/>
			<path class="st0" d="M498,89.72c-3.44,0-3.25,3.57-3.25,3.57l-0.01,5.53v0l3.25,0l3.25,0v0l0.01-5.53
				C501.24,93.29,501.44,89.72,498,89.72z"/>
			<path class="st0" d="M506.98,89.73c-3.44,0-3.25,3.57-3.25,3.57l-0.01,5.53v0l3.25,0l3.25,0l0,0l0.01-5.53
				C510.22,93.3,510.42,89.73,506.98,89.73z"/>
			<path class="st0" d="M515.96,89.73c-3.44,0-3.25,3.57-3.25,3.57l-0.01,5.53l0,0l3.25,0l3.25,0v0l0.01-5.53
				C519.21,93.31,519.4,89.74,515.96,89.73z"/>
			<path class="st0" d="M524.94,89.74c-3.44,0-3.25,3.57-3.25,3.57l-0.01,5.53v0l3.25,0l3.25,0l0,0l0.01-5.53
				C528.19,93.32,528.38,89.75,524.94,89.74z"/>
			<path class="st0" d="M533.93,89.75c-3.44,0-3.25,3.57-3.25,3.57l-0.01,5.53v0l3.25,0l3.25,0l0,0l0.01-5.53
				C537.17,93.33,537.37,89.76,533.93,89.75z"/>
			<path class="st0" d="M542.91,89.76c-3.44,0-3.25,3.57-3.25,3.57l-0.01,5.53l0,0l3.25,0l3.25,0v0l0.01-5.53
				C546.15,93.34,546.35,89.77,542.91,89.76z"/>
			<path class="st0" d="M551.89,89.77c-3.44,0-3.25,3.57-3.25,3.57l-0.01,5.53v0l2.94,0l0.31,0l0.76,0l2.49,0v0l0.01-5.53
				C555.13,93.35,555.33,89.77,551.89,89.77z"/>
			<path class="st0" d="M560.87,89.78c-3.44,0-3.25,3.57-3.25,3.57l-0.01,5.53l0,0l3.25,0l3.25,0l0,0l0.01-5.53
				C564.11,93.36,564.31,89.78,560.87,89.78z"/>
			<path class="st0" d="M474.28,112.65l0.01-5.53c0,0,0.2-3.57-3.24-3.58c-3.44,0-3.25,3.57-3.25,3.57l-0.01,5.53l0,0l1.29,0l1.96,0
				L474.28,112.65z"/>
			<path class="st0" d="M483.27,107.13c0,0,0.2-3.57-3.24-3.58c-3.44,0-3.25,3.57-3.25,3.57l-0.01,5.53l3.11,0l0.14,0l0.11,0l3.14,0
				L483.27,107.13z"/>
			<path class="st0" d="M488.99,112.67l3.25,0l0.01-5.53c0,0,0.2-3.57-3.24-3.58c-3.44,0-3.25,3.57-3.25,3.57l-0.01,5.53
				L488.99,112.67z"/>
			<path class="st0" d="M497.98,112.68l3.25,0l0.01-5.53c0,0,0.2-3.57-3.24-3.58c-3.44,0-3.25,3.57-3.25,3.57l-0.01,5.53
				L497.98,112.68z"/>
			<path class="st0" d="M506.97,103.58c-3.44,0-3.25,3.57-3.25,3.57l-0.01,5.53l3.25,0l2.99,0l0.25,0l0,0l0.01-5.53
				C510.21,107.16,510.41,103.59,506.97,103.58z"/>
			<path class="st0" d="M515.94,112.7l3.25,0l0.01-5.53c0,0,0.2-3.57-3.24-3.58c-3.44,0-3.25,3.57-3.25,3.57l-0.01,5.53
				L515.94,112.7z"/>
			<path class="st0" d="M524.92,112.71l3.25,0l0.01-5.53c0,0,0.2-3.57-3.24-3.58c-3.44,0-3.25,3.57-3.25,3.57l-0.01,5.53
				L524.92,112.71z"/>
			<path class="st0" d="M533.91,103.61c-3.44,0-3.25,3.57-3.25,3.57l-0.01,5.53l3.25,0l2.38,0l0.86,0l0,0l0.01-5.53
				C537.15,107.19,537.35,103.61,533.91,103.61z"/>
			<path class="st0" d="M542.88,112.72l3.25,0l0.01-5.53c0,0,0.2-3.57-3.24-3.58c-3.44,0-3.25,3.57-3.25,3.57l-0.01,5.53
				L542.88,112.72z"/>
			<path class="st0" d="M551.87,112.73l3.25,0l0.01-5.53c0,0,0.2-3.57-3.24-3.58c-3.44,0-3.25,3.57-3.25,3.57l-0.01,5.53
				L551.87,112.73z"/>
			<path class="st0" d="M560.85,112.74l3.25,0l0.01-5.53c0,0,0.2-3.57-3.24-3.58c-3.44,0-3.25,3.57-3.25,3.57l-0.01,5.53
				L560.85,112.74z"/>
		</g>
		<g>
			<g>
				<path class="st0" d="M74.64,34.47l0-0.02l0-0.01C74.64,34.45,74.64,34.46,74.64,34.47z"/>
				<path class="st0" d="M64.91,34.45L64.91,34.45l-0.01,0.03C64.9,34.47,64.9,34.45,64.91,34.45z"/>
				<polygon class="st0" points="73.49,32.74 73.48,32.74 73.48,32.73 				"/>
				<path class="st0" d="M71.31,31.43"/>
				<polygon class="st0" points="58.07,16.18 58.44,16.18 58.28,16.18 				"/>
				<path class="st0" d="M68.22,31.43"/>
				<polygon class="st0" points="66.06,32.74 66.06,32.74 66.05,32.74 				"/>
				<path class="st0" d="M58.28,16.18l0.16,0l1.58,0c0.41,0,0.8-0.38,0.97-1c0.3-1.17,0.17-3.53-2.54-7.97l0-0.02c0,0,0,0.01,0,0.01
					c0,0,0-0.01,0-0.01l0,0.02c-2.71,4.45-2.84,6.81-2.53,7.98c0.16,0.62,0.55,1,0.97,1l1.21,0L58.28,16.18z"/>
				<polygon class="st0" points="56.48,104.72 56.48,104.72 53.38,104.72 53.38,113.87 68.43,113.86 83.15,113.85 83.15,104.7 
					78.65,104.71 78.65,104.71 				"/>
				<polygon class="st0" points="49.9,113.87 49.9,119.15 86.65,119.12 86.64,113.85 83.15,113.85 68.43,113.86 				"/>
				<polygon class="st0" points="65.99,91.94 56.48,101.47 56.48,104.72 56.48,104.72 78.65,104.71 78.65,104.71 78.64,84.24 
					77.29,84.92 67.56,90.37 				"/>
				<polygon class="st0" points="79.86,49.04 75.98,46.72 58.32,73.82 58.34,99.6 65.99,91.94 67.56,90.37 				"/>
				<path class="st0" d="M74.54,45.99c-0.84,1.8-2.66,3.06-4.76,3.06c-2.9,0-5.27-2.37-5.28-5.27l0-2.92l-2.79-1.42l-4.18,4.19l0,0
					l-1.78,1.78l0.02,32.33l2.56-3.92l17.66-27.1L74.54,45.99z"/>
				<polygon class="st0" points="79.87,66.41 79.87,62.07 79.87,62.07 79.86,49.04 67.56,90.37 77.29,84.92 79.88,83.46 
					79.87,74.63 79.87,74.63 				"/>
				<polygon class="st0" points="57.51,19.6 57.51,19.6 57.89,19.6 				"/>
				<polygon class="st0" points="61.71,39.44 61.7,19.59 60.46,19.59 60.46,25.64 57.52,25.64 57.53,43.63 57.53,43.63 				"/>
				<polygon class="st0" points="53.79,19.6 63.09,19.59 63.09,16.18 60.02,16.18 58.44,16.18 58.07,16.18 56.86,16.18 53.79,16.19 
									"/>
				<polygon class="st0" points="60.46,19.59 60.46,19.59 57.89,19.6 57.51,19.6 56.43,19.6 56.43,25.64 57.52,25.64 60.46,25.64 
									"/>
				<polygon class="st0" points="79.87,66.41 79.87,74.63 79.87,74.63 84.99,71.37 84.99,66.67 83.13,69.7 				"/>
				<polygon class="st0" points="83.89,56.79 79.87,62.07 79.87,62.07 79.87,66.41 83.13,69.7 84.99,66.67 88.86,60.36 				"/>
				<path class="st0" d="M69.78,49.05c2.11,0,3.92-1.26,4.76-3.06c0.32-0.68,0.51-1.42,0.5-2.21l0-4.3v0c0-2.9-2.38-5.27-5.28-5.27
					c-2.9,0-5.27,2.38-5.27,5.28l0,1.3v0.09l0,2.92C64.51,46.68,66.88,49.05,69.78,49.05z"/>
			</g>
			<path class="st0" d="M74.98,35.82l1.4-0.86l-1.7-0.5l-0.03-0.03l1.58-2.56l-2.75,0.86l0,0c0,0-0.01,0-0.01-0.01l0.01,0l0.58-3.59
				l-2.75,2.28l-1.55-3.66l-1.54,3.66l-2.75-2.28l0.58,3.58l0.01,0c0,0-0.01,0-0.01,0.01l0,0l-2.75-0.86l1.6,2.57l0-0.01
				c0,0.01-0.01,0.02-0.01,0.03l0-0.02l-1.74,0.52l1.4,0.86c-0.03,0.21-0.07,0.43-0.07,0.65l0,4.3l0,0l0-1.3
				c0-2.9,2.37-5.27,5.27-5.28c2.9,0,5.27,2.37,5.28,5.27l0-3C75.04,36.25,75,36.03,74.98,35.82z M71.31,31.43L71.31,31.43
				L71.31,31.43L71.31,31.43z"/>
			<path class="st0" d="M66.05,35.75c0,0-2.09,10.02,3.72,10.02c5.81,0,3.94-9.78,3.94-9.78"/>
		</g>
		<polyline class="st0" points="113.88,80.53 115.63,80.53 115.63,118.97 		"/>
		<line class="st0" x1="194.81" y1="78.28" x2="206.29" y2="78.28"/>
		<line class="st0" x1="229.94" y1="73.91" x2="249.67" y2="73.91"/>
		<line class="st0" x1="229.98" y1="112.75" x2="249.67" y2="112.75"/>
		<line class="st0" x1="376.16" y1="84.06" x2="376.16" y2="119.04"/>
		<line class="st0" x1="404.3" y1="84.08" x2="404.3" y2="119.04"/>
		<line class="st0" x1="390.25" y1="53.2" x2="390.25" y2="119.13"/>
		<line class="st0" x1="430.63" y1="58.37" x2="450.64" y2="58.37"/>
		<line class="st0" x1="430.63" y1="98.35" x2="450.58" y2="98.35"/>
		<line class="st0" x1="430.63" y1="62.97" x2="450.58" y2="62.97"/>
		<polyline class="st0" points="775.96,68.83 778.03,27.67 779.53,27.67 781.85,68.83 		"/>
		<line class="st0" x1="816.13" y1="97.56" x2="841.26" y2="97.56"/>
	</g>
	<line class="st0" x1="0.42" y1="119.2" x2="850.71" y2="119.2"/>
	<line class="st0" x1="78.64" y1="85.81" x2="63.23" y2="104.7"/>
	<line class="st0" x1="77.73" y1="47.77" x2="58.34" y2="99.6"/>
	<line class="st0" x1="79.86" y1="49.04" x2="74.38" y2="86.54"/>
	<polyline class="st0" points="66.34,47.77 55.76,77.74 61.71,39.44 	"/>
	<path class="st0" d="M106.44,49.7v18.07l-3.87-0.01C102.57,67.76,98.53,61.56,106.44,49.7z"/>
	<path class="st0" d="M106.44,49.7v18.07l3.87-0.01C110.31,67.76,114.36,61.56,106.44,49.7z"/>
	<line class="st0" x1="130.23" y1="23.8" x2="138.5" y2="18.19"/>
	<line class="st0" x1="131.02" y1="26.72" x2="140.19" y2="20.53"/>
	<line class="st0" x1="135.55" y1="27.24" x2="141.47" y2="23.31"/>
	<line class="st0" x1="134.5" y1="67.54" x2="152.03" y2="67.54"/>
	<line class="st0" x1="137.38" y1="61.57" x2="148.98" y2="61.57"/>
	<line class="st0" x1="140.19" y1="58.59" x2="146.63" y2="58.59"/>
	<line class="st0" x1="135.69" y1="64.55" x2="150.84" y2="64.55"/>
	<line class="st0" x1="134.69" y1="70.52" x2="151.85" y2="70.52"/>
	<path class="st0" d="M117.12,49.7c0,0,8.8,1.65,8.8,11.44"/>
	<path class="st0" d="M120.22,45.83c0,0,10.3,4.4,10.3,14.31"/>
	<path class="st0" d="M115.11,53.13c0,0,7.19,2.12,7.19,7.99"/>
	<path class="st0" d="M114.08,56.35c0,0,4.62,0.97,4.62,4.75"/>
	<line class="st0" x1="151.47" y1="55.41" x2="162.13" y2="59.71"/>
	<line class="st0" x1="152.7" y1="51.3" x2="168.62" y2="57.74"/>
	<line class="st0" x1="154.9" y1="47.77" x2="168.62" y2="53.4"/>
	<line class="st0" x1="157.49" y1="44.58" x2="166.48" y2="49.04"/>
	<line class="st0" x1="426.38" y1="107.37" x2="454.75" y2="107.37"/>
	<line class="st0" x1="426.38" y1="115.9" x2="454.74" y2="115.9"/>
	<line class="st0" x1="577.86" y1="62.12" x2="642.32" y2="62.12"/>
	<line class="st0" x1="577.86" y1="92.21" x2="642.32" y2="92.21"/>
	<line class="st0" x1="762.35" y1="93.13" x2="795.54" y2="93.13"/>
</g>
</svg>
