<?xml version="1.0" encoding="utf-8"?>
<!-- Generator: Adobe Illustrator 27.2.0, SVG Export Plug-In . SVG Version: 6.00 Build 0)  -->
<svg version="1.1" id="Layer_1" xmlns="http://www.w3.org/2000/svg" xmlns:xlink="http://www.w3.org/1999/xlink" x="0px" y="0px"
	 viewBox="0 0 249.52 134.65" style="enable-background:new 0 0 249.52 134.65;" xml:space="preserve">
<style type="text/css">
	.st0{fill:url(#SVGID_1_);}
	.st1{fill:url(#SVGID_00000119833457807400159130000006485472949874061467_);}
	.st2{fill:#5C4C42;}
	.st3{fill:#C9B99E;}
</style>
<g>
	<g>
		<linearGradient id="SVGID_1_" gradientUnits="userSpaceOnUse" x1="195.1701" y1="89.645" x2="195.1701" y2="3.6032">
			<stop  offset="3.720238e-04" style="stop-color:#5C4C42"/>
			<stop  offset="0.0433" style="stop-color:#695A4E"/>
			<stop  offset="0.1782" style="stop-color:#8D7F70"/>
			<stop  offset="0.3193" style="stop-color:#AB9E8D"/>
			<stop  offset="0.4662" style="stop-color:#C3B6A2"/>
			<stop  offset="0.6216" style="stop-color:#D3C7B2"/>
			<stop  offset="0.7908" style="stop-color:#DDD1BB"/>
			<stop  offset="1" style="stop-color:#E0D4BE"/>
		</linearGradient>
		<path class="st0" d="M160.55,83.17c-10.46-0.15-17.86,4.51-16.13,4.85c27.88,5.59,40.55-5.06,40.55-5.06
			C179.68,85.11,171.01,83.32,160.55,83.17z M162.99,71.76c-16.81,3.17-18.86,10.09-18.86,10.09l24.2-3.54
			c23.74-2.67,46.25-20.42,46.25-20.42C197.12,67.37,179.81,68.6,162.99,71.76z M156.66,59.89c-10.75,4.98-12.88,14.75-12.47,14.52
			c7.25-4.18,33.74-11.12,33.74-11.12c47.65-12.7,65.59-42.02,65.59-42.02C227.37,42.42,167.41,54.92,156.66,59.89z M171.14,36.31
			c-22.26,6.5-27.43,31.46-26.97,30.37c4.45-10.73,36.55-19.75,36.55-19.75C229.14,33.32,246.2,3.6,246.2,3.6
			C231.17,20.68,193.4,29.8,171.14,36.31z"/>
		
			<linearGradient id="SVGID_00000101088756983401023370000016792644384642380952_" gradientUnits="userSpaceOnUse" x1="201.9684" y1="89.367" x2="201.9684" y2="3.3252" gradientTransform="matrix(-1 0 0 1 255.9227 0)">
			<stop  offset="3.720238e-04" style="stop-color:#5C4C42"/>
			<stop  offset="0.0433" style="stop-color:#695A4E"/>
			<stop  offset="0.1782" style="stop-color:#8D7F70"/>
			<stop  offset="0.3193" style="stop-color:#AB9E8D"/>
			<stop  offset="0.4662" style="stop-color:#C3B6A2"/>
			<stop  offset="0.6216" style="stop-color:#D3C7B2"/>
			<stop  offset="0.7908" style="stop-color:#DDD1BB"/>
			<stop  offset="1" style="stop-color:#E0D4BE"/>
		</linearGradient>
		<path style="fill:url(#SVGID_00000101088756983401023370000016792644384642380952_);" d="M88.58,82.89
			c10.46-0.15,17.86,4.51,16.13,4.85c-27.88,5.59-40.55-5.06-40.55-5.06C69.44,84.83,78.12,83.04,88.58,82.89z M86.13,71.48
			c16.81,3.17,18.86,10.09,18.86,10.09l-24.2-3.54c-23.74-2.67-46.25-20.42-46.25-20.42C52,67.09,69.32,68.32,86.13,71.48z
			 M92.47,59.62c10.75,4.98,12.88,14.75,12.47,14.52C97.69,69.95,71.2,63.01,71.2,63.01C23.55,50.32,5.61,21,5.61,21
			C21.76,42.14,81.72,54.64,92.47,59.62z M77.99,36.03c22.26,6.5,27.43,31.46,26.97,30.37c-4.45-10.73-36.55-19.75-36.55-19.75
			C19.98,33.04,2.92,3.33,2.92,3.33C17.95,20.41,55.72,29.53,77.99,36.03z"/>
	</g>
	<g>
		<path class="st2" d="M66.48,111.15c0.72,0.41,1.46,0.78,2.2,1.1c0.74,0.33,1.52,0.6,2.32,0.83c0.8,0.23,1.64,0.4,2.52,0.52
			c0.88,0.12,1.82,0.18,2.82,0.18c1.2,0,2.22-0.08,3.06-0.24s1.53-0.37,2.06-0.65s0.92-0.61,1.16-0.99c0.24-0.38,0.36-0.8,0.36-1.25
			c0-0.72-0.3-1.3-0.91-1.72c-0.6-0.42-1.54-0.63-2.8-0.63c-0.55,0-1.14,0.04-1.75,0.11s-1.23,0.15-1.86,0.24
			c-0.63,0.08-1.24,0.16-1.85,0.24c-0.61,0.07-1.18,0.11-1.72,0.11c-0.89,0-1.75-0.12-2.57-0.34c-0.82-0.23-1.55-0.57-2.18-1.04
			c-0.63-0.46-1.14-1.03-1.51-1.72c-0.37-0.69-0.56-1.49-0.56-2.41c0-0.54,0.07-1.09,0.22-1.62c0.15-0.54,0.39-1.05,0.71-1.54
			c0.33-0.49,0.75-0.94,1.27-1.37c0.52-0.42,1.15-0.79,1.88-1.09c0.74-0.31,1.59-0.55,2.55-0.72c0.97-0.17,2.07-0.26,3.3-0.26
			c0.89,0,1.79,0.05,2.69,0.15c0.9,0.1,1.78,0.24,2.64,0.42c0.86,0.18,1.68,0.39,2.47,0.64c0.79,0.25,1.53,0.53,2.21,0.84
			l-1.78,3.27c-0.56-0.25-1.17-0.48-1.81-0.68c-0.65-0.21-1.32-0.39-2.03-0.54c-0.71-0.15-1.44-0.28-2.19-0.36s-1.52-0.13-2.31-0.13
			c-1.11,0-2.03,0.08-2.75,0.24c-0.72,0.16-1.29,0.37-1.72,0.62c-0.43,0.25-0.72,0.53-0.89,0.84c-0.17,0.31-0.25,0.62-0.25,0.93
			c0,0.6,0.27,1.08,0.81,1.46s1.35,0.57,2.45,0.57c0.44,0,0.95-0.03,1.53-0.09c0.57-0.06,1.18-0.13,1.81-0.21
			c0.63-0.08,1.28-0.15,1.94-0.21c0.66-0.06,1.3-0.1,1.92-0.1c1.17,0,2.22,0.13,3.12,0.4c0.91,0.26,1.67,0.64,2.28,1.13
			c0.61,0.49,1.08,1.08,1.39,1.78c0.32,0.69,0.47,1.47,0.47,2.33c0,1.15-0.27,2.17-0.8,3.07c-0.53,0.9-1.29,1.66-2.27,2.27
			c-0.98,0.62-2.17,1.08-3.56,1.4c-1.39,0.32-2.93,0.48-4.64,0.48c-1.12,0-2.22-0.07-3.29-0.21c-1.07-0.14-2.1-0.34-3.08-0.6
			c-0.98-0.26-1.92-0.57-2.81-0.93c-0.89-0.36-1.71-0.76-2.47-1.19L66.48,111.15z"/>
		<path class="st2" d="M90.95,97.13H95v10.99c0,0.9,0.12,1.7,0.37,2.41c0.25,0.7,0.61,1.3,1.1,1.78c0.49,0.49,1.1,0.85,1.82,1.1
			c0.72,0.25,1.57,0.38,2.53,0.38c0.95,0,1.79-0.13,2.52-0.38c0.73-0.25,1.34-0.62,1.83-1.1c0.49-0.48,0.86-1.08,1.11-1.78
			c0.25-0.7,0.37-1.5,0.37-2.41V97.13h4.05v11.48c0,1.31-0.22,2.5-0.66,3.58c-0.44,1.07-1.09,1.99-1.93,2.76
			c-0.84,0.77-1.88,1.36-3.1,1.78c-1.22,0.42-2.62,0.63-4.18,0.63s-2.96-0.21-4.18-0.63c-1.22-0.42-2.25-1.01-3.1-1.78
			c-0.84-0.77-1.49-1.69-1.93-2.76c-0.44-1.07-0.66-2.26-0.66-3.58V97.13z"/>
		<path class="st2" d="M115.63,97.13h4.05l7.25,7.28l7.25-7.28h4.05v19.96h-4.05v-14.35l-7.25,6.98l-7.25-6.98v14.35h-4.05V97.13z"
			/>
		<path class="st2" d="M143.91,97.13h17v3.55h-12.95v3.98h11.47V108h-11.47v5.55h13.22v3.54h-17.26V97.13z"/>
		<path class="st2" d="M165.67,97.13h10.15c1.53,0,2.86,0.16,3.98,0.48c1.12,0.32,2.06,0.78,2.8,1.39c0.74,0.6,1.29,1.34,1.65,2.21
			c0.36,0.87,0.54,1.85,0.54,2.95c0,0.74-0.09,1.45-0.27,2.11s-0.45,1.28-0.82,1.84c-0.37,0.56-0.84,1.06-1.4,1.5
			c-0.56,0.44-1.22,0.8-1.98,1.09l4.34,6.38h-4.95l-3.75-5.67h-0.11l-6.13-0.01v5.68h-4.05V97.13z M175.93,107.91
			c0.77,0,1.44-0.09,2.01-0.27c0.57-0.18,1.05-0.43,1.44-0.75c0.39-0.32,0.68-0.72,0.87-1.18c0.19-0.46,0.29-0.98,0.29-1.55
			c0-1.11-0.38-1.98-1.15-2.59c-0.77-0.61-1.92-0.91-3.46-0.91h-6.21v7.25H175.93z"/>
	</g>
	<g>
		<path class="st3" d="M109.04,79.7c1.21,0.71,2.43,1.34,3.68,1.91c1.24,0.57,2.53,1.04,3.87,1.43c1.34,0.39,2.74,0.69,4.21,0.89
			s3.04,0.31,4.7,0.31c2,0,3.71-0.14,5.11-0.41c1.41-0.27,2.55-0.65,3.44-1.12c0.89-0.48,1.53-1.05,1.94-1.71
			c0.41-0.66,0.61-1.38,0.61-2.16c0-1.25-0.51-2.24-1.51-2.97c-1.01-0.73-2.56-1.09-4.67-1.09c-0.92,0-1.9,0.06-2.92,0.19
			c-1.02,0.13-2.06,0.26-3.1,0.41c-1.04,0.15-2.07,0.28-3.09,0.41c-1.02,0.13-1.97,0.19-2.86,0.19c-1.49,0-2.92-0.2-4.29-0.59
			c-1.37-0.4-2.59-0.99-3.64-1.79c-1.06-0.79-1.9-1.79-2.53-2.98c-0.62-1.19-0.94-2.58-0.94-4.17c0-0.94,0.12-1.87,0.37-2.8
			c0.25-0.93,0.65-1.81,1.19-2.66c0.55-0.85,1.25-1.63,2.12-2.36c0.87-0.73,1.91-1.36,3.14-1.89c1.23-0.53,2.65-0.94,4.26-1.25
			c1.61-0.3,3.45-0.45,5.51-0.45c1.49,0,2.99,0.08,4.5,0.25c1.51,0.17,2.97,0.41,4.4,0.72c1.43,0.31,2.8,0.68,4.12,1.11
			c1.32,0.43,2.55,0.91,3.69,1.44l-2.96,5.65c-0.94-0.43-1.95-0.82-3.03-1.18c-1.08-0.36-2.21-0.67-3.39-0.94
			c-1.18-0.26-2.4-0.47-3.65-0.63c-1.26-0.15-2.54-0.23-3.85-0.23c-1.86,0-3.39,0.14-4.59,0.42c-1.2,0.28-2.16,0.64-2.87,1.07
			c-0.71,0.43-1.2,0.92-1.48,1.46c-0.28,0.54-0.42,1.07-0.42,1.6c0,1.03,0.45,1.87,1.34,2.53c0.89,0.65,2.26,0.98,4.09,0.98
			c0.74,0,1.59-0.05,2.55-0.17c0.96-0.11,1.97-0.23,3.03-0.36c1.06-0.13,2.14-0.25,3.24-0.36c1.1-0.11,2.17-0.17,3.21-0.17
			c1.96,0,3.7,0.23,5.21,0.68c1.51,0.46,2.78,1.11,3.8,1.95c1.02,0.85,1.8,1.87,2.32,3.07c0.52,1.2,0.79,2.54,0.79,4.02
			c0,1.98-0.44,3.75-1.33,5.3c-0.89,1.55-2.15,2.86-3.79,3.93c-1.64,1.06-3.62,1.87-5.93,2.43c-2.31,0.55-4.89,0.83-7.73,0.83
			c-1.87,0-3.71-0.12-5.5-0.36c-1.79-0.24-3.51-0.59-5.15-1.04c-1.64-0.45-3.2-0.99-4.69-1.61c-1.48-0.62-2.86-1.31-4.12-2.06
			L109.04,79.7z"/>
	</g>
	<g>
		<path class="st2" d="M71.73,128.35v1.09l-0.18,0.06h-0.55c-0.54,0-1-0.11-1.38-0.33c-0.38-0.22-0.67-0.54-0.86-0.97h-0.01
			c-0.31,0.94-0.97,1.41-1.98,1.41c-0.48,0-0.91-0.12-1.28-0.34c-0.37-0.23-0.65-0.56-0.86-1c-0.2-0.44-0.31-0.95-0.31-1.54
			c0-0.61,0.12-1.13,0.37-1.56s0.6-0.76,1.07-0.99c0.47-0.23,1.02-0.34,1.67-0.34h2.55v2.81c0,0.54,0.13,0.94,0.38,1.21
			c0.25,0.27,0.61,0.41,1.09,0.41h0.1L71.73,128.35z M66.04,122.65c-0.13-0.07-0.23-0.17-0.3-0.29c-0.07-0.12-0.11-0.26-0.11-0.41
			c0-0.23,0.08-0.43,0.24-0.58c0.16-0.15,0.35-0.23,0.59-0.23c0.23,0,0.43,0.08,0.59,0.23c0.16,0.16,0.24,0.35,0.24,0.58
			c0,0.15-0.04,0.28-0.11,0.41c-0.08,0.12-0.18,0.22-0.31,0.29c-0.13,0.07-0.27,0.11-0.42,0.11
			C66.31,122.76,66.17,122.72,66.04,122.65z M68.09,127.96c0.22-0.29,0.32-0.73,0.32-1.3v-1.59h-0.98c-0.48,0-0.86,0.15-1.13,0.44
			c-0.27,0.29-0.41,0.7-0.41,1.23c0,0.53,0.11,0.94,0.33,1.23c0.22,0.29,0.53,0.43,0.94,0.43S67.87,128.25,68.09,127.96z
			 M68.03,122.65c-0.13-0.07-0.23-0.17-0.3-0.29c-0.07-0.12-0.11-0.26-0.11-0.41c0-0.23,0.08-0.43,0.24-0.58
			c0.16-0.15,0.35-0.23,0.59-0.23c0.23,0,0.43,0.08,0.59,0.23c0.16,0.16,0.24,0.35,0.24,0.58c0,0.15-0.04,0.28-0.11,0.41
			c-0.08,0.12-0.18,0.22-0.31,0.29c-0.13,0.07-0.27,0.11-0.42,0.11C68.3,122.76,68.16,122.72,68.03,122.65z"/>
		<path class="st2" d="M77.04,127.6c0.15,0.24,0.3,0.4,0.44,0.5s0.3,0.16,0.47,0.18v1.23h-6.4l-0.18-0.06v-1.1l0.18-0.06h4.15v-0.04
			c-0.09-0.1-0.17-0.23-0.26-0.39c-0.09-0.16-0.2-0.39-0.33-0.7l-0.52-1.24c-0.2-0.46-0.38-0.8-0.56-1.04
			c-0.18-0.24-0.38-0.4-0.6-0.49c-0.22-0.09-0.5-0.14-0.83-0.14h-0.27v-1.23h0.27c0.66,0,1.19,0.06,1.6,0.19
			c0.4,0.13,0.74,0.36,1.03,0.69c0.28,0.33,0.56,0.82,0.82,1.46l0.52,1.24C76.72,127.03,76.88,127.36,77.04,127.6z"/>
		<path class="st2" d="M79.33,126.59v-5.89h1.56v5.89c0,0.59,0.12,1.02,0.37,1.29c0.25,0.27,0.62,0.4,1.11,0.4h0.09l0.18,0.07v1.1
			l-0.18,0.06h-0.41C80.24,129.51,79.33,128.54,79.33,126.59z"/>
		<path class="st2" d="M87.34,128.35v1.09l-0.18,0.06H86.6c-0.54,0-1-0.11-1.38-0.33c-0.38-0.22-0.67-0.54-0.86-0.97h-0.04
			c-0.15,0.43-0.38,0.75-0.68,0.97c-0.3,0.22-0.67,0.33-1.11,0.33h-0.07l-0.18-0.06v-1.1l0.18-0.06h0.09c0.48,0,0.85-0.14,1.1-0.41
			c0.25-0.27,0.38-0.68,0.38-1.21v-2.2h1.57v2.2c0,0.54,0.13,0.94,0.38,1.21s0.61,0.41,1.09,0.41h0.1L87.34,128.35z M83.42,132.13
			c-0.13-0.07-0.23-0.17-0.3-0.29c-0.07-0.12-0.11-0.26-0.11-0.41c0-0.23,0.08-0.43,0.24-0.58s0.35-0.23,0.59-0.23
			c0.23,0,0.43,0.08,0.59,0.23c0.16,0.15,0.24,0.35,0.24,0.58c0,0.15-0.04,0.28-0.11,0.41c-0.08,0.12-0.18,0.22-0.31,0.29
			c-0.13,0.07-0.27,0.11-0.42,0.11C83.68,132.24,83.54,132.2,83.42,132.13z M85.41,132.13c-0.13-0.07-0.23-0.17-0.3-0.29
			c-0.07-0.12-0.11-0.26-0.11-0.41c0-0.23,0.08-0.43,0.24-0.58s0.35-0.23,0.59-0.23c0.23,0,0.43,0.08,0.59,0.23
			c0.16,0.15,0.24,0.35,0.24,0.58c0,0.15-0.04,0.28-0.11,0.41c-0.08,0.12-0.18,0.22-0.31,0.29c-0.13,0.07-0.27,0.11-0.42,0.11
			C85.67,132.24,85.53,132.2,85.41,132.13z"/>
		<path class="st2" d="M100.99,128.35v1.09l-0.18,0.06h-1.3c-0.52,0-0.96-0.1-1.32-0.31c-0.37-0.21-0.64-0.52-0.84-0.92h-0.02
			c-0.15,0.43-0.37,0.75-0.66,0.97s-0.65,0.33-1.07,0.33s-0.79-0.11-1.09-0.32c-0.3-0.21-0.54-0.53-0.7-0.94h-0.02
			c-0.16,0.42-0.39,0.73-0.7,0.95c-0.31,0.21-0.69,0.32-1.14,0.32c-0.51,0-0.95-0.11-1.31-0.33c-0.36-0.22-0.63-0.55-0.81-0.99
			h-0.03c-0.15,0.41-0.38,0.73-0.68,0.94c-0.3,0.21-0.67,0.32-1.1,0.32h-0.85l-0.18-0.06v-1.1l0.18-0.06h0.86
			c0.48,0,0.85-0.14,1.1-0.41c0.25-0.27,0.38-0.68,0.38-1.21v-2.2h1.56v2.2c0,0.56,0.1,0.98,0.31,1.26c0.21,0.28,0.5,0.42,0.88,0.42
			c0.41,0,0.72-0.14,0.94-0.42c0.21-0.28,0.32-0.7,0.32-1.26v-2.2h1.56v2.2c0,0.56,0.08,0.98,0.23,1.26
			c0.15,0.28,0.38,0.42,0.67,0.42c0.31,0,0.54-0.14,0.7-0.42c0.16-0.28,0.24-0.7,0.24-1.27v-2.81h1.56v2.81
			c0,0.54,0.13,0.94,0.38,1.21s0.61,0.41,1.09,0.41h0.87L100.99,128.35z"/>
		<path class="st2" d="M103.7,120.7v8.81h-2.9l-0.18-0.06v-1.1l0.18-0.06h1.34v-7.58H103.7z"/>
		<path class="st2" d="M105.51,120.7h1.56v8.81h-1.56V120.7z"/>
		<path class="st2" d="M112.87,124.01c0.43,0.25,0.76,0.61,1,1.08c0.24,0.47,0.36,1.03,0.36,1.68v1.71c0,1.31-0.33,2.29-0.99,2.94
			c-0.66,0.64-1.67,0.96-3.03,0.96h-0.71v-1.23h0.65c0.72,0,1.27-0.13,1.66-0.38c0.38-0.26,0.64-0.67,0.76-1.25h-0.79
			c-1.08,0-1.88-0.24-2.41-0.74c-0.53-0.49-0.79-1.23-0.79-2.23c0-0.56,0.12-1.06,0.36-1.5s0.57-0.79,1-1.03s0.92-0.37,1.46-0.37
			C111.95,123.64,112.44,123.76,112.87,124.01z M110.54,127.85c0.27,0.29,0.68,0.43,1.24,0.43h0.88v-1.52
			c0-0.62-0.11-1.09-0.32-1.41c-0.21-0.32-0.53-0.48-0.95-0.48c-0.25,0-0.47,0.07-0.66,0.21c-0.19,0.14-0.34,0.34-0.45,0.59
			c-0.11,0.25-0.16,0.54-0.16,0.87C110.14,127.12,110.27,127.56,110.54,127.85z"/>
		<path class="st2" d="M121.87,128.34v1.1l-0.18,0.06h-1.33c0,0.96-0.24,1.68-0.72,2.16c-0.48,0.47-1.2,0.71-2.17,0.71
			c-0.2,0-0.35,0-0.44-0.01v-1.19c0.05,0,0.13,0.01,0.25,0.01c0.51,0,0.89-0.14,1.13-0.42s0.37-0.71,0.37-1.28v-5.03h1.57v3.83h1.33
			L121.87,128.34z"/>
		<path class="st2" d="M129.87,128.34v1.1l-0.18,0.06h-7.99l-0.18-0.06v-1.1l0.18-0.06h1.72v-0.03c-0.42-0.41-0.62-0.98-0.62-1.71
			c0-0.57,0.12-1.07,0.36-1.51c0.24-0.44,0.57-0.78,1-1.03s0.92-0.37,1.46-0.37c0.55,0,1.04,0.12,1.47,0.37s0.76,0.61,1,1.08
			c0.24,0.47,0.36,1.03,0.36,1.68v1.52h1.24L129.87,128.34z M126.88,128.28v-1.52c0-0.61-0.11-1.08-0.33-1.4
			c-0.22-0.33-0.53-0.49-0.93-0.49c-0.26,0-0.49,0.07-0.68,0.21c-0.19,0.14-0.34,0.34-0.44,0.6c-0.1,0.26-0.15,0.55-0.15,0.89
			c0,0.56,0.14,0.98,0.42,1.28c0.28,0.29,0.69,0.44,1.23,0.44H126.88z M125.18,122.43c-0.13-0.08-0.24-0.18-0.31-0.31
			c-0.08-0.13-0.12-0.27-0.12-0.42c0-0.16,0.04-0.3,0.12-0.43c0.08-0.13,0.18-0.23,0.31-0.31c0.13-0.08,0.27-0.11,0.43-0.11
			s0.3,0.04,0.44,0.11c0.13,0.08,0.24,0.18,0.31,0.31s0.12,0.27,0.12,0.43c0,0.16-0.04,0.3-0.12,0.42s-0.18,0.23-0.31,0.31
			c-0.13,0.08-0.28,0.11-0.44,0.11C125.46,122.55,125.31,122.51,125.18,122.43z"/>
		<path class="st2" d="M143.52,128.35v1.09l-0.18,0.06h-1.3c-0.52,0-0.96-0.1-1.32-0.31c-0.37-0.21-0.64-0.52-0.84-0.92h-0.02
			c-0.15,0.43-0.37,0.75-0.66,0.97c-0.29,0.22-0.65,0.33-1.07,0.33c-0.42,0-0.79-0.11-1.09-0.32c-0.3-0.21-0.54-0.53-0.7-0.94h-0.02
			c-0.16,0.42-0.39,0.73-0.7,0.95s-0.69,0.32-1.14,0.32c-0.51,0-0.95-0.11-1.31-0.33c-0.36-0.22-0.63-0.55-0.81-0.99h-0.03
			c-0.15,0.41-0.38,0.73-0.68,0.94c-0.3,0.21-0.67,0.32-1.1,0.32h-0.85l-0.18-0.06v-1.1l0.18-0.06h0.86c0.48,0,0.85-0.14,1.1-0.41
			c0.25-0.27,0.38-0.68,0.38-1.21v-2.2h1.56v2.2c0,0.56,0.1,0.98,0.31,1.26c0.21,0.28,0.5,0.42,0.88,0.42
			c0.41,0,0.72-0.14,0.94-0.42s0.32-0.7,0.32-1.26v-2.2h1.56v2.2c0,0.56,0.08,0.98,0.23,1.26c0.15,0.28,0.38,0.42,0.67,0.42
			c0.31,0,0.54-0.14,0.7-0.42c0.16-0.28,0.24-0.7,0.24-1.27v-2.81H141v2.81c0,0.54,0.13,0.94,0.38,1.21
			c0.25,0.27,0.61,0.41,1.09,0.41h0.87L143.52,128.35z"/>
		<path class="st2" d="M148.21,128.35v1.09l-0.18,0.06h-0.55c-0.54,0-1-0.11-1.38-0.33c-0.38-0.22-0.66-0.54-0.86-0.97h-0.04
			c-0.15,0.43-0.38,0.75-0.68,0.97c-0.3,0.22-0.67,0.33-1.11,0.33h-0.07l-0.18-0.06v-1.1l0.18-0.06h0.09c0.48,0,0.85-0.14,1.1-0.41
			c0.25-0.27,0.38-0.68,0.38-1.21v-5.96h1.57v5.96c0,0.54,0.13,0.94,0.38,1.21c0.25,0.27,0.61,0.41,1.09,0.41h0.1L148.21,128.35z"/>
		<path class="st2" d="M150.93,120.7v8.81h-2.9l-0.18-0.06v-1.1l0.18-0.06h1.34v-7.58H150.93z"/>
		<path class="st2" d="M158.77,128.34v1.1l-0.18,0.06h-1.33c0,0.96-0.24,1.68-0.72,2.16c-0.48,0.47-1.2,0.71-2.17,0.71
			c-0.2,0-0.35,0-0.44-0.01v-1.19c0.05,0,0.13,0.01,0.25,0.01c0.51,0,0.89-0.14,1.14-0.42c0.25-0.28,0.37-0.71,0.37-1.28v-5.03h1.57
			v3.83h1.33L158.77,128.34z"/>
		<path class="st2" d="M164.11,124.01c0.43,0.25,0.76,0.59,1.01,1.03c0.24,0.44,0.36,0.94,0.36,1.5c0,1-0.27,1.74-0.8,2.23
			c-0.53,0.49-1.34,0.74-2.41,0.74h-3.69l-0.18-0.06v-1.1l0.18-0.06h1.24v-1.52c0-0.65,0.12-1.21,0.36-1.68
			c0.24-0.47,0.57-0.83,1-1.08c0.43-0.25,0.92-0.37,1.47-0.37C163.2,123.64,163.68,123.76,164.11,124.01z M163.51,127.85
			c0.27-0.29,0.41-0.72,0.41-1.31c0-0.33-0.05-0.61-0.16-0.87c-0.11-0.25-0.25-0.45-0.45-0.59c-0.19-0.14-0.41-0.21-0.65-0.21
			c-0.42,0-0.74,0.16-0.95,0.48c-0.21,0.32-0.32,0.79-0.32,1.41v1.52h0.88C162.82,128.28,163.24,128.14,163.51,127.85z"/>
		<path class="st2" d="M173.74,128.34v1.1l-0.18,0.06h-1.32c-0.15,0.96-0.56,1.68-1.21,2.15c-0.65,0.47-1.56,0.71-2.73,0.71h-0.71
			v-1.23h0.65c0.72,0,1.27-0.13,1.66-0.38c0.38-0.26,0.64-0.67,0.76-1.25h-0.79c-1.08,0-1.88-0.24-2.41-0.74s-0.79-1.23-0.79-2.23
			c0-0.56,0.12-1.06,0.36-1.5c0.24-0.44,0.57-0.79,1-1.03c0.43-0.25,0.92-0.37,1.46-0.37c0.55,0,1.04,0.12,1.47,0.37
			c0.43,0.25,0.76,0.61,1,1.08c0.24,0.47,0.36,1.03,0.36,1.68v1.52h1.24L173.74,128.34z M168.64,127.85
			c0.27,0.29,0.68,0.43,1.24,0.43h0.88v-1.52c0-0.62-0.11-1.09-0.32-1.41c-0.21-0.32-0.53-0.48-0.95-0.48
			c-0.24,0-0.46,0.07-0.65,0.21c-0.19,0.14-0.34,0.34-0.45,0.59c-0.11,0.25-0.16,0.54-0.16,0.87
			C168.23,127.12,168.37,127.56,168.64,127.85z"/>
		<path class="st2" d="M184.8,123.85v5.66h-2.33c-0.54,0-1-0.11-1.38-0.33c-0.38-0.22-0.67-0.54-0.86-0.96h-0.02
			c-0.31,0.9-0.94,1.35-1.87,1.35c-0.51,0-0.95-0.11-1.31-0.33c-0.36-0.22-0.63-0.55-0.81-0.99h-0.03
			c-0.15,0.41-0.38,0.73-0.68,0.94c-0.3,0.21-0.67,0.32-1.1,0.32h-0.85l-0.18-0.06v-1.1l0.18-0.06h0.86c0.48,0,0.85-0.14,1.1-0.41
			c0.25-0.27,0.38-0.68,0.38-1.21v-2.2h1.56v2.2c0,0.56,0.1,0.98,0.31,1.26c0.21,0.28,0.5,0.42,0.88,0.42
			c0.41,0,0.72-0.14,0.94-0.42s0.32-0.7,0.32-1.26v-2.2h1.56v2.2c0,0.54,0.13,0.94,0.38,1.21c0.25,0.27,0.61,0.41,1.09,0.41h0.31
			v-4.44H184.8z"/>
	</g>
</g>
</svg>
